<?xml version="1.0" encoding="UTF-8"?>
<svg id="DarkMode" xmlns="http://www.w3.org/2000/svg" viewBox="0 0 312.25 145.28">
  <defs>
    <style>
      .cls-1 {
        fill: #808285;
      }

      .cls-1, .cls-2, .cls-3, .cls-4 {
        stroke-width: 0px;
      }

      .cls-2 {
        fill: #233e4a;
      }

      .cls-5 {
        stroke-linecap: round;
        stroke-linejoin: round;
        stroke-width: 10px;
      }

      .cls-5, .cls-6 {
        fill: none;
        stroke: #fff;
      }

      .cls-3 {
        fill: #058d81;
      }

      .cls-4 {
        fill: #fff;
      }

      .cls-6 {
        stroke-miterlimit: 10;
        stroke-width: 4px;
      }
    </style>
  </defs>
  <g id="Kanji_Kanji_" data-name="Kanji(Kanji)">
    <g>
      <g>
        <g>
          <path class="cls-2" d="m5.87,74.9c1.1,0,3.25,1.02,6.43,3.06,1.08.68,1.93,1.29,2.57,1.83.82.73,1.23,1.55,1.23,2.46,0,.56-.16,1.1-.49,1.62-.45.73-1.12,1.09-2.04,1.09-.84,0-1.69-.49-2.53-1.48-1.05-1.24-2.98-2.99-5.77-5.24-.63-.49-.95-1.05-.95-1.69,0-.4.14-.77.42-1.12s.66-.53,1.12-.53Zm11.25,17.58c1.38,0,2.07.66,2.07,1.97,0,.52-.22,1.39-.67,2.64-2.44,6.73-4.93,12.18-7.49,16.35-.73,1.17-1.59,1.76-2.6,1.76-.59,0-1.15-.19-1.69-.56-.68-.49-1.02-1.15-1.02-1.97,0-.66.43-1.69,1.3-3.09,3.19-5.3,5.86-10.41,8.02-15.33.49-1.17,1.18-1.76,2.07-1.76Zm-7.84-32.87c1.1,0,3.07.91,5.91,2.74,1.64,1.05,2.69,1.83,3.16,2.32.63.66.95,1.36.95,2.11,0,.63-.21,1.2-.63,1.69-.52.63-1.2.95-2.04.95-.8,0-1.64-.47-2.53-1.41-2.16-2.3-3.97-3.97-5.45-5.03-.68-.47-1.02-1.04-1.02-1.72,0-1.1.55-1.65,1.65-1.65Zm32.06,27.35l-8.75.67c-.16,1.2-.97,1.79-2.43,1.79-1.36,0-2.17-.79-2.43-2.36l-1.83-11.11c-.02-.19-.04-.33-.04-.42,0-1.41.84-2.11,2.53-2.11.98,0,1.7.36,2.14,1.09l26.12-2.29c.19-.02.41-.04.67-.04,2.51,0,3.76,1.16,3.76,3.48,0,.42-.04.86-.11,1.3l-.88,5.03c.54.35.81.91.81,1.69,0,1.17-.75,1.82-2.25,1.93l-12.59.95v4.25l14.38-1.12h.35c1.36,0,2.04.64,2.04,1.93s-.72,2.02-2.14,2.11l-14.7,1.05c-.07,1.73-.18,3.14-.32,4.22l19.69-1.3c.21-.02.33-.04.35-.04.91-.05,1.55.32,1.9,1.09.12.26.18.55.18.88,0,1.38-.74,2.12-2.21,2.21l-18.21,1.2c2.11,2.25,5.16,4.7,9.14,7.35,3.73,2.48,7.32,4.34,10.79,5.55,1.34.47,2,1.01,2,1.62,0,.45-.4.81-1.2,1.09-2.23.82-3.93,1.23-5.1,1.23-.8,0-1.55-.23-2.25-.7-6.35-4.15-11.88-8.92-16.59-14.31-2.25,5.23-6.47,9.33-12.66,12.3-3.28,1.57-5.55,2.36-6.82,2.36-.63,0-1.11-.26-1.44-.77-.23-.35-.35-.71-.35-1.09,0-.68.33-1.22.98-1.62.16-.09.77-.34,1.83-.74,7.17-2.77,11.8-6.69,13.89-11.78l-16.21,1.05c-1.59.12-2.39-.53-2.39-1.93s.73-2.06,2.18-2.18l17.58-1.16c.21-1.36.36-2.75.46-4.18l-12.52.91h-.42c-1.29,0-1.93-.61-1.93-1.83,0-1.29.69-1.98,2.07-2.07l12.9-.98v-4.22Zm11.43-21.06l-.35,3.06c-.19,1.55-1,2.32-2.43,2.32-1.52,0-2.23-.84-2.11-2.53l.14-2.39-10.16.95.25,2.11v.53c0,1.59-.73,2.39-2.18,2.39-1.31,0-2.07-.76-2.29-2.29l-.35-2.29-8.44.77c-.16.02-.29.04-.39.04-1.38.07-2.07-.63-2.07-2.11,0-1.27.67-1.97,2-2.11l8.23-.77-.6-3.9c-.05-.38-.07-.75-.07-1.12,0-1.52.8-2.29,2.39-2.29,1.48,0,2.32.86,2.53,2.57l.49,4.32,10.93-1.02.32-4.54c.09-1.69.84-2.53,2.25-2.53,1.92,0,2.88.79,2.88,2.36,0,.14-.01.32-.04.53l-.42,3.69,7.98-.74h.32c1.48.07,2.21.73,2.21,1.97,0,1.34-.75,2.07-2.25,2.21l-8.79.81Zm-11.43,11.43l-10.09.88.84,5.73,9.25-.77v-5.84Zm4.75-.42v5.87l9.25-.77.46-4.32c.02-.14.04-.28.04-.42,0-.73-.39-1.09-1.16-1.09h-.25l-8.33.74Z"/>
          <path class="cls-2" d="m111.02,91.04c.4,1.03.76,2.09,1.09,3.16l25.38-1.55c.49,0,.89.12,1.2.35.68.47,1.02,1.14,1.02,2,0,1.48-.69,2.25-2.07,2.32l-24.43,1.48c0,.12.02.33.07.63.28,1.62.42,3.5.42,5.66,0,9.28-2.19,13.92-6.57,13.92-1.99,0-4.64-.64-7.95-1.93-2.41-.96-3.62-1.93-3.62-2.92,0-.26.08-.55.25-.88.33-.68.86-1.02,1.58-1.02.33,0,.84.12,1.55.35,2.23.75,4.18,1.12,5.87,1.12,1.34,0,2.24-.61,2.71-1.83.73-1.83,1.09-4.45,1.09-7.88,0-1.55-.11-3.19-.32-4.92l-27.91,1.69h-.11c-.42.02-.82-.09-1.2-.35-.61-.45-.91-1.11-.91-2,0-1.48.69-2.25,2.07-2.32l27.18-1.65c-.49-1.8-1.1-3.34-1.83-4.61-.35-.61-.53-1.16-.53-1.65s.2-.9.6-1.23c.42-.33.88-.49,1.37-.49.7,0,1.42.39,2.14,1.16,2.55-1.78,4.76-3.63,6.61-5.55.61-.61.91-1.03.91-1.27s-.28-.35-.84-.35h-.32l-23.27,1.79-.25.04c-.61.05-1.12-.25-1.55-.88-.28-.42-.42-.89-.42-1.41,0-1.43.69-2.19,2.07-2.29l29.11-2c.3-.02.48-.04.53-.04,2.16,0,3.23.75,3.23,2.25,0,1.12-.75,2.41-2.25,3.87-3.91,3.82-7.82,6.89-11.71,9.21Zm-.25-25.7l22.75-1.41h.39c2.41,0,3.62.88,3.62,2.64,0,1.66-1.39,4.29-4.18,7.88-1.73,2.23-3.06,3.34-3.97,3.34-.38,0-.75-.13-1.12-.39-.47-.3-.7-.76-.7-1.37,0-.45.23-1.03.7-1.76.77-1.15,1.46-2.47,2.07-3.97.19-.45.28-.81.28-1.09,0-.49-.36-.74-1.09-.74h-.32l-41.98,2.67c0,2.72-.32,5.14-.95,7.28-.56,1.88-1.51,2.81-2.85,2.81-1.9,0-2.85-.86-2.85-2.57,0-.49.21-1.29.63-2.39.89-2.27,1.52-5.23,1.9-8.86.16-1.5.8-2.25,1.9-2.25,1.01,0,1.63.55,1.86,1.65l18.49-1.12v-7.95c0-1.64.9-2.46,2.71-2.46.96,0,1.7.33,2.21.98.33.4.49.89.49,1.48v7.59Z"/>
        </g>
        <g>
          <path class="cls-2" d="m5.58,74.61c1.1,0,3.25,1.02,6.43,3.06,1.08.68,1.93,1.29,2.57,1.83.82.73,1.23,1.55,1.23,2.46,0,.56-.16,1.1-.49,1.62-.45.73-1.12,1.09-2.04,1.09-.84,0-1.69-.49-2.53-1.48-1.05-1.24-2.98-2.99-5.77-5.24-.63-.49-.95-1.05-.95-1.69,0-.4.14-.77.42-1.12s.66-.53,1.12-.53Zm11.25,17.58c1.38,0,2.07.66,2.07,1.97,0,.52-.22,1.39-.67,2.64-2.44,6.73-4.93,12.18-7.49,16.35-.73,1.17-1.59,1.76-2.6,1.76-.59,0-1.15-.19-1.69-.56-.68-.49-1.02-1.15-1.02-1.97,0-.66.43-1.69,1.3-3.09,3.19-5.3,5.86-10.41,8.02-15.33.49-1.17,1.18-1.76,2.07-1.76Zm-7.84-32.87c1.1,0,3.07.91,5.91,2.74,1.64,1.05,2.69,1.83,3.16,2.32.63.66.95,1.36.95,2.11,0,.63-.21,1.2-.63,1.69-.52.63-1.2.95-2.04.95-.8,0-1.64-.47-2.53-1.41-2.16-2.3-3.97-3.97-5.45-5.03-.68-.47-1.02-1.04-1.02-1.72,0-1.1.55-1.65,1.65-1.65Zm32.06,27.35l-8.75.67c-.16,1.2-.97,1.79-2.43,1.79-1.36,0-2.17-.79-2.43-2.36l-1.83-11.11c-.02-.19-.04-.33-.04-.42,0-1.41.84-2.11,2.53-2.11.98,0,1.7.36,2.14,1.09l26.12-2.29c.19-.02.41-.04.67-.04,2.51,0,3.76,1.16,3.76,3.48,0,.42-.04.86-.11,1.3l-.88,5.03c.54.35.81.91.81,1.69,0,1.17-.75,1.82-2.25,1.93l-12.59.95v4.25l14.38-1.12h.35c1.36,0,2.04.64,2.04,1.93s-.72,2.02-2.14,2.11l-14.7,1.05c-.07,1.73-.18,3.14-.32,4.22l19.69-1.3c.21-.02.33-.04.35-.04.91-.05,1.55.32,1.9,1.09.12.26.18.55.18.88,0,1.38-.74,2.12-2.21,2.21l-18.21,1.2c2.11,2.25,5.16,4.7,9.14,7.35,3.73,2.48,7.32,4.34,10.79,5.55,1.34.47,2,1.01,2,1.62,0,.45-.4.81-1.2,1.09-2.23.82-3.93,1.23-5.1,1.23-.8,0-1.55-.23-2.25-.7-6.35-4.15-11.88-8.92-16.59-14.31-2.25,5.23-6.47,9.33-12.66,12.3-3.28,1.57-5.55,2.36-6.82,2.36-.63,0-1.11-.26-1.44-.77-.23-.35-.35-.71-.35-1.09,0-.68.33-1.22.98-1.62.16-.09.77-.34,1.83-.74,7.17-2.77,11.8-6.69,13.89-11.78l-16.21,1.05c-1.59.12-2.39-.53-2.39-1.93s.73-2.06,2.18-2.18l17.58-1.16c.21-1.36.36-2.75.46-4.18l-12.52.91h-.42c-1.29,0-1.93-.61-1.93-1.83,0-1.29.69-1.98,2.07-2.07l12.9-.98v-4.22Zm11.43-21.06l-.35,3.06c-.19,1.55-1,2.32-2.43,2.32-1.52,0-2.23-.84-2.11-2.53l.14-2.39-10.16.95.25,2.11v.53c0,1.59-.73,2.39-2.18,2.39-1.31,0-2.07-.76-2.29-2.29l-.35-2.29-8.44.77c-.16.02-.29.04-.39.04-1.38.07-2.07-.63-2.07-2.11,0-1.27.67-1.97,2-2.11l8.23-.77-.6-3.9c-.05-.38-.07-.75-.07-1.12,0-1.52.8-2.29,2.39-2.29,1.48,0,2.32.86,2.53,2.57l.49,4.32,10.93-1.02.32-4.54c.09-1.69.84-2.53,2.25-2.53,1.92,0,2.88.79,2.88,2.36,0,.14-.01.32-.04.53l-.42,3.69,7.98-.74h.32c1.48.07,2.21.73,2.21,1.97,0,1.34-.75,2.07-2.25,2.21l-8.79.81Zm-11.43,11.43l-10.09.88.84,5.73,9.25-.77v-5.84Zm4.75-.42v5.87l9.25-.77.46-4.32c.02-.14.04-.28.04-.42,0-.73-.39-1.09-1.16-1.09h-.25l-8.33.74Z"/>
          <path class="cls-2" d="m110.73,90.75c.4,1.03.76,2.09,1.09,3.16l25.38-1.55c.49,0,.89.12,1.2.35.68.47,1.02,1.14,1.02,2,0,1.48-.69,2.25-2.07,2.32l-24.43,1.48c0,.12.02.33.07.63.28,1.62.42,3.5.42,5.66,0,9.28-2.19,13.92-6.57,13.92-1.99,0-4.64-.64-7.95-1.93-2.41-.96-3.62-1.93-3.62-2.92,0-.26.08-.55.25-.88.33-.68.86-1.02,1.58-1.02.33,0,.84.12,1.55.35,2.23.75,4.18,1.12,5.87,1.12,1.34,0,2.24-.61,2.71-1.83.73-1.83,1.09-4.45,1.09-7.88,0-1.55-.11-3.19-.32-4.92l-27.91,1.69h-.11c-.42.02-.82-.09-1.2-.35-.61-.45-.91-1.11-.91-2,0-1.48.69-2.25,2.07-2.32l27.18-1.65c-.49-1.8-1.1-3.34-1.83-4.61-.35-.61-.53-1.16-.53-1.65s.2-.9.6-1.23c.42-.33.88-.49,1.37-.49.7,0,1.42.39,2.14,1.16,2.55-1.78,4.76-3.63,6.61-5.55.61-.61.91-1.03.91-1.27s-.28-.35-.84-.35h-.32l-23.27,1.79-.25.04c-.61.05-1.12-.25-1.55-.88-.28-.42-.42-.89-.42-1.41,0-1.43.69-2.19,2.07-2.29l29.11-2c.3-.02.48-.04.53-.04,2.16,0,3.23.75,3.23,2.25,0,1.12-.75,2.41-2.25,3.87-3.91,3.82-7.82,6.89-11.71,9.21Zm-.25-25.7l22.75-1.41h.39c2.41,0,3.62.88,3.62,2.64,0,1.66-1.39,4.29-4.18,7.88-1.73,2.23-3.06,3.34-3.97,3.34-.38,0-.75-.13-1.12-.39-.47-.3-.7-.76-.7-1.37,0-.45.23-1.03.7-1.76.77-1.15,1.46-2.47,2.07-3.97.19-.45.28-.81.28-1.09,0-.49-.36-.74-1.09-.74h-.32l-41.98,2.67c0,2.72-.32,5.14-.95,7.28-.56,1.88-1.51,2.81-2.85,2.81-1.9,0-2.85-.86-2.85-2.57,0-.49.21-1.29.63-2.39.89-2.27,1.52-5.23,1.9-8.86.16-1.5.8-2.25,1.9-2.25,1.01,0,1.63.55,1.86,1.65l18.49-1.12v-7.95c0-1.64.9-2.46,2.71-2.46.96,0,1.7.33,2.21.98.33.4.49.89.49,1.48v7.59Z"/>
        </g>
        <g>
          <path class="cls-2" d="m5.29,74.32c1.1,0,3.25,1.02,6.43,3.06,1.08.68,1.93,1.29,2.57,1.83.82.73,1.23,1.55,1.23,2.46,0,.56-.16,1.1-.49,1.62-.45.73-1.12,1.09-2.04,1.09-.84,0-1.69-.49-2.53-1.48-1.05-1.24-2.98-2.99-5.77-5.24-.63-.49-.95-1.05-.95-1.69,0-.4.14-.77.42-1.12s.66-.53,1.12-.53Zm11.25,17.58c1.38,0,2.07.66,2.07,1.97,0,.52-.22,1.39-.67,2.64-2.44,6.73-4.93,12.18-7.49,16.35-.73,1.17-1.59,1.76-2.6,1.76-.59,0-1.15-.19-1.69-.56-.68-.49-1.02-1.15-1.02-1.97,0-.66.43-1.69,1.3-3.09,3.19-5.3,5.86-10.41,8.02-15.33.49-1.17,1.18-1.76,2.07-1.76Zm-7.84-32.87c1.1,0,3.07.91,5.91,2.74,1.64,1.05,2.69,1.83,3.16,2.32.63.66.95,1.36.95,2.11,0,.63-.21,1.2-.63,1.69-.52.63-1.2.95-2.04.95-.8,0-1.64-.47-2.53-1.41-2.16-2.3-3.97-3.97-5.45-5.03-.68-.47-1.02-1.04-1.02-1.72,0-1.1.55-1.65,1.65-1.65Zm32.06,27.35l-8.75.67c-.16,1.2-.97,1.79-2.43,1.79-1.36,0-2.17-.79-2.43-2.36l-1.83-11.11c-.02-.19-.04-.33-.04-.42,0-1.41.84-2.11,2.53-2.11.98,0,1.7.36,2.14,1.09l26.12-2.29c.19-.02.41-.04.67-.04,2.51,0,3.76,1.16,3.76,3.48,0,.42-.04.86-.11,1.3l-.88,5.03c.54.35.81.91.81,1.69,0,1.17-.75,1.82-2.25,1.93l-12.59.95v4.25l14.38-1.12h.35c1.36,0,2.04.64,2.04,1.93s-.72,2.02-2.14,2.11l-14.7,1.05c-.07,1.73-.18,3.14-.32,4.22l19.69-1.3c.21-.02.33-.04.35-.04.91-.05,1.55.32,1.9,1.09.12.26.18.55.18.88,0,1.38-.74,2.12-2.21,2.21l-18.21,1.2c2.11,2.25,5.16,4.7,9.14,7.35,3.73,2.48,7.32,4.34,10.79,5.55,1.34.47,2,1.01,2,1.62,0,.45-.4.81-1.2,1.09-2.23.82-3.93,1.23-5.1,1.23-.8,0-1.55-.23-2.25-.7-6.35-4.15-11.88-8.92-16.59-14.31-2.25,5.23-6.47,9.33-12.66,12.3-3.28,1.57-5.55,2.36-6.82,2.36-.63,0-1.11-.26-1.44-.77-.23-.35-.35-.71-.35-1.09,0-.68.33-1.22.98-1.62.16-.09.77-.34,1.83-.74,7.17-2.77,11.8-6.69,13.89-11.78l-16.21,1.05c-1.59.12-2.39-.53-2.39-1.93s.73-2.06,2.18-2.18l17.58-1.16c.21-1.36.36-2.75.46-4.18l-12.52.91h-.42c-1.29,0-1.93-.61-1.93-1.83,0-1.29.69-1.98,2.07-2.07l12.9-.98v-4.22Zm11.43-21.06l-.35,3.06c-.19,1.55-1,2.32-2.43,2.32-1.52,0-2.23-.84-2.11-2.53l.14-2.39-10.16.95.25,2.11v.53c0,1.59-.73,2.39-2.18,2.39-1.31,0-2.07-.76-2.29-2.29l-.35-2.29-8.44.77c-.16.02-.29.04-.39.04-1.38.07-2.07-.63-2.07-2.11,0-1.27.67-1.97,2-2.11l8.23-.77-.6-3.9c-.05-.38-.07-.75-.07-1.12,0-1.52.8-2.29,2.39-2.29,1.48,0,2.32.86,2.53,2.57l.49,4.32,10.93-1.02.32-4.54c.09-1.69.84-2.53,2.25-2.53,1.92,0,2.88.79,2.88,2.36,0,.14-.01.32-.04.53l-.42,3.69,7.98-.74h.32c1.48.07,2.21.73,2.21,1.97,0,1.34-.75,2.07-2.25,2.21l-8.79.81Zm-11.43,11.43l-10.09.88.84,5.73,9.25-.77v-5.84Zm4.75-.42v5.87l9.25-.77.46-4.32c.02-.14.04-.28.04-.42,0-.73-.39-1.09-1.16-1.09h-.25l-8.33.74Z"/>
          <path class="cls-2" d="m110.44,90.46c.4,1.03.76,2.09,1.09,3.16l25.38-1.55c.49,0,.89.12,1.2.35.68.47,1.02,1.14,1.02,2,0,1.48-.69,2.25-2.07,2.32l-24.43,1.48c0,.12.02.33.07.63.28,1.62.42,3.5.42,5.66,0,9.28-2.19,13.92-6.57,13.92-1.99,0-4.64-.64-7.95-1.93-2.41-.96-3.62-1.93-3.62-2.92,0-.26.08-.55.25-.88.33-.68.86-1.02,1.58-1.02.33,0,.84.12,1.55.35,2.23.75,4.18,1.12,5.87,1.12,1.34,0,2.24-.61,2.71-1.83.73-1.83,1.09-4.45,1.09-7.88,0-1.55-.11-3.19-.32-4.92l-27.91,1.69h-.11c-.42.02-.82-.09-1.2-.35-.61-.45-.91-1.11-.91-2,0-1.48.69-2.25,2.07-2.32l27.18-1.65c-.49-1.8-1.1-3.34-1.83-4.61-.35-.61-.53-1.16-.53-1.65s.2-.9.6-1.23c.42-.33.88-.49,1.37-.49.7,0,1.42.39,2.14,1.16,2.55-1.78,4.76-3.63,6.61-5.55.61-.61.91-1.03.91-1.27s-.28-.35-.84-.35h-.32l-23.27,1.79-.25.04c-.61.05-1.12-.25-1.55-.88-.28-.42-.42-.89-.42-1.41,0-1.43.69-2.19,2.07-2.29l29.11-2c.3-.02.48-.04.53-.04,2.16,0,3.23.75,3.23,2.25,0,1.12-.75,2.41-2.25,3.87-3.91,3.82-7.82,6.89-11.71,9.21Zm-.25-25.7l22.75-1.41h.39c2.41,0,3.62.88,3.62,2.64,0,1.66-1.39,4.29-4.18,7.88-1.73,2.23-3.06,3.34-3.97,3.34-.38,0-.75-.13-1.12-.39-.47-.3-.7-.76-.7-1.37,0-.45.23-1.03.7-1.76.77-1.15,1.46-2.47,2.07-3.97.19-.45.28-.81.28-1.09,0-.49-.36-.74-1.09-.74h-.32l-41.98,2.67c0,2.72-.32,5.14-.95,7.28-.56,1.88-1.51,2.81-2.85,2.81-1.9,0-2.85-.86-2.85-2.57,0-.49.21-1.29.63-2.39.89-2.27,1.52-5.23,1.9-8.86.16-1.5.8-2.25,1.9-2.25,1.01,0,1.63.55,1.86,1.65l18.49-1.12v-7.95c0-1.64.9-2.46,2.71-2.46.96,0,1.7.33,2.21.98.33.4.49.89.49,1.48v7.59Z"/>
        </g>
        <g>
          <path class="cls-2" d="m5,74.03c1.1,0,3.25,1.02,6.43,3.06,1.08.68,1.93,1.29,2.57,1.83.82.73,1.23,1.55,1.23,2.46,0,.56-.16,1.1-.49,1.62-.45.73-1.12,1.09-2.04,1.09-.84,0-1.69-.49-2.53-1.48-1.05-1.24-2.98-2.99-5.77-5.24-.63-.49-.95-1.05-.95-1.69,0-.4.14-.77.42-1.12s.66-.53,1.12-.53Zm11.25,17.58c1.38,0,2.07.66,2.07,1.97,0,.52-.22,1.39-.67,2.64-2.44,6.73-4.93,12.18-7.49,16.35-.73,1.17-1.59,1.76-2.6,1.76-.59,0-1.15-.19-1.69-.56-.68-.49-1.02-1.15-1.02-1.97,0-.66.43-1.69,1.3-3.09,3.19-5.3,5.86-10.41,8.02-15.33.49-1.17,1.18-1.76,2.07-1.76Zm-7.84-32.87c1.1,0,3.07.91,5.91,2.74,1.64,1.05,2.69,1.83,3.16,2.32.63.66.95,1.36.95,2.11,0,.63-.21,1.2-.63,1.69-.52.63-1.2.95-2.04.95-.8,0-1.64-.47-2.53-1.41-2.16-2.3-3.97-3.97-5.45-5.03-.68-.47-1.02-1.04-1.02-1.72,0-1.1.55-1.65,1.65-1.65Zm32.06,27.35l-8.75.67c-.16,1.2-.97,1.79-2.43,1.79-1.36,0-2.17-.79-2.43-2.36l-1.83-11.11c-.02-.19-.04-.33-.04-.42,0-1.41.84-2.11,2.53-2.11.98,0,1.7.36,2.14,1.09l26.12-2.29c.19-.02.41-.04.67-.04,2.51,0,3.76,1.16,3.76,3.48,0,.42-.04.86-.11,1.3l-.88,5.03c.54.35.81.91.81,1.69,0,1.17-.75,1.82-2.25,1.93l-12.59.95v4.25l14.38-1.12h.35c1.36,0,2.04.64,2.04,1.93s-.72,2.02-2.14,2.11l-14.7,1.05c-.07,1.73-.18,3.14-.32,4.22l19.69-1.3c.21-.02.33-.04.35-.04.91-.05,1.55.32,1.9,1.09.12.26.18.55.18.88,0,1.38-.74,2.12-2.21,2.21l-18.21,1.2c2.11,2.25,5.16,4.7,9.14,7.35,3.73,2.48,7.32,4.34,10.79,5.55,1.34.47,2,1.01,2,1.62,0,.45-.4.81-1.2,1.09-2.23.82-3.93,1.23-5.1,1.23-.8,0-1.55-.23-2.25-.7-6.35-4.15-11.88-8.92-16.59-14.31-2.25,5.23-6.47,9.33-12.66,12.3-3.28,1.57-5.55,2.36-6.82,2.36-.63,0-1.11-.26-1.44-.77-.23-.35-.35-.71-.35-1.09,0-.68.33-1.22.98-1.62.16-.09.77-.34,1.83-.74,7.17-2.77,11.8-6.69,13.89-11.78l-16.21,1.05c-1.59.12-2.39-.53-2.39-1.93s.73-2.06,2.18-2.18l17.58-1.16c.21-1.36.36-2.75.46-4.18l-12.52.91h-.42c-1.29,0-1.93-.61-1.93-1.83,0-1.29.69-1.98,2.07-2.07l12.9-.98v-4.22Zm11.43-21.06l-.35,3.06c-.19,1.55-1,2.32-2.43,2.32-1.52,0-2.23-.84-2.11-2.53l.14-2.39-10.16.95.25,2.11v.53c0,1.59-.73,2.39-2.18,2.39-1.31,0-2.07-.76-2.29-2.29l-.35-2.29-8.44.77c-.16.02-.29.04-.39.04-1.38.07-2.07-.63-2.07-2.11,0-1.27.67-1.97,2-2.11l8.23-.77-.6-3.9c-.05-.38-.07-.75-.07-1.12,0-1.52.8-2.29,2.39-2.29,1.48,0,2.32.86,2.53,2.57l.49,4.32,10.93-1.02.32-4.54c.09-1.69.84-2.53,2.25-2.53,1.92,0,2.88.79,2.88,2.36,0,.14-.01.32-.04.53l-.42,3.69,7.98-.74h.32c1.48.07,2.21.73,2.21,1.97,0,1.34-.75,2.07-2.25,2.21l-8.79.81Zm-11.43,11.43l-10.09.88.84,5.73,9.25-.77v-5.84Zm4.75-.42v5.87l9.25-.77.46-4.32c.02-.14.04-.28.04-.42,0-.73-.39-1.09-1.16-1.09h-.25l-8.33.74Z"/>
          <path class="cls-2" d="m110.16,90.17c.4,1.03.76,2.09,1.09,3.16l25.38-1.55c.49,0,.89.12,1.2.35.68.47,1.02,1.14,1.02,2,0,1.48-.69,2.25-2.07,2.32l-24.43,1.48c0,.12.02.33.07.63.28,1.62.42,3.5.42,5.66,0,9.28-2.19,13.92-6.57,13.92-1.99,0-4.64-.64-7.95-1.93-2.41-.96-3.62-1.93-3.62-2.92,0-.26.08-.55.25-.88.33-.68.86-1.02,1.58-1.02.33,0,.84.12,1.55.35,2.23.75,4.18,1.12,5.87,1.12,1.34,0,2.24-.61,2.71-1.83.73-1.83,1.09-4.45,1.09-7.88,0-1.55-.11-3.19-.32-4.92l-27.91,1.69h-.11c-.42.02-.82-.09-1.2-.35-.61-.45-.91-1.11-.91-2,0-1.48.69-2.25,2.07-2.32l27.18-1.65c-.49-1.8-1.1-3.34-1.83-4.61-.35-.61-.53-1.16-.53-1.65s.2-.9.6-1.23c.42-.33.88-.49,1.37-.49.7,0,1.42.39,2.14,1.16,2.55-1.78,4.76-3.63,6.61-5.55.61-.61.91-1.03.91-1.27s-.28-.35-.84-.35h-.32l-23.27,1.79-.25.04c-.61.05-1.12-.25-1.55-.88-.28-.42-.42-.89-.42-1.41,0-1.43.69-2.19,2.07-2.29l29.11-2c.3-.02.48-.04.53-.04,2.16,0,3.23.75,3.23,2.25,0,1.12-.75,2.41-2.25,3.87-3.91,3.82-7.82,6.89-11.71,9.21Zm-.25-25.7l22.75-1.41h.39c2.41,0,3.62.88,3.62,2.64,0,1.66-1.39,4.29-4.18,7.88-1.73,2.23-3.06,3.34-3.97,3.34-.38,0-.75-.13-1.12-.39-.47-.3-.7-.76-.7-1.37,0-.45.23-1.03.7-1.76.77-1.15,1.46-2.47,2.07-3.97.19-.45.28-.81.28-1.09,0-.49-.36-.74-1.09-.74h-.32l-41.98,2.67c0,2.72-.32,5.14-.95,7.28-.56,1.88-1.51,2.81-2.85,2.81-1.9,0-2.85-.86-2.85-2.57,0-.49.21-1.29.63-2.39.89-2.27,1.52-5.23,1.9-8.86.16-1.5.8-2.25,1.9-2.25,1.01,0,1.63.55,1.86,1.65l18.49-1.12v-7.95c0-1.64.9-2.46,2.71-2.46.96,0,1.7.33,2.21.98.33.4.49.89.49,1.48v7.59Z"/>
        </g>
        <g>
          <path class="cls-2" d="m4.71,73.75c1.1,0,3.25,1.02,6.43,3.06,1.08.68,1.93,1.29,2.57,1.83.82.73,1.23,1.55,1.23,2.46,0,.56-.16,1.1-.49,1.62-.45.73-1.12,1.09-2.04,1.09-.84,0-1.69-.49-2.53-1.48-1.05-1.24-2.98-2.99-5.77-5.24-.63-.49-.95-1.05-.95-1.69,0-.4.14-.77.42-1.12s.66-.53,1.12-.53Zm11.25,17.58c1.38,0,2.07.66,2.07,1.97,0,.52-.22,1.39-.67,2.64-2.44,6.73-4.93,12.18-7.49,16.35-.73,1.17-1.59,1.76-2.6,1.76-.59,0-1.15-.19-1.69-.56-.68-.49-1.02-1.15-1.02-1.97,0-.66.43-1.69,1.3-3.09,3.19-5.3,5.86-10.41,8.02-15.33.49-1.17,1.18-1.76,2.07-1.76Zm-7.84-32.87c1.1,0,3.07.91,5.91,2.74,1.64,1.05,2.69,1.83,3.16,2.32.63.66.95,1.36.95,2.11,0,.63-.21,1.2-.63,1.69-.52.63-1.2.95-2.04.95-.8,0-1.64-.47-2.53-1.41-2.16-2.3-3.97-3.97-5.45-5.03-.68-.47-1.02-1.04-1.02-1.72,0-1.1.55-1.65,1.65-1.65Zm32.06,27.35l-8.75.67c-.16,1.2-.97,1.79-2.43,1.79-1.36,0-2.17-.79-2.43-2.36l-1.83-11.11c-.02-.19-.04-.33-.04-.42,0-1.41.84-2.11,2.53-2.11.98,0,1.7.36,2.14,1.09l26.12-2.29c.19-.02.41-.04.67-.04,2.51,0,3.76,1.16,3.76,3.48,0,.42-.04.86-.11,1.3l-.88,5.03c.54.35.81.91.81,1.69,0,1.17-.75,1.82-2.25,1.93l-12.59.95v4.25l14.38-1.12h.35c1.36,0,2.04.64,2.04,1.93s-.72,2.02-2.14,2.11l-14.7,1.05c-.07,1.73-.18,3.14-.32,4.22l19.69-1.3c.21-.02.33-.04.35-.04.91-.05,1.55.32,1.9,1.09.12.26.18.55.18.88,0,1.38-.74,2.12-2.21,2.21l-18.21,1.2c2.11,2.25,5.16,4.7,9.14,7.35,3.73,2.48,7.32,4.34,10.79,5.55,1.34.47,2,1.01,2,1.62,0,.45-.4.81-1.2,1.09-2.23.82-3.93,1.23-5.1,1.23-.8,0-1.55-.23-2.25-.7-6.35-4.15-11.88-8.92-16.59-14.31-2.25,5.23-6.47,9.33-12.66,12.3-3.28,1.57-5.55,2.36-6.82,2.36-.63,0-1.11-.26-1.44-.77-.23-.35-.35-.71-.35-1.09,0-.68.33-1.22.98-1.62.16-.09.77-.34,1.83-.74,7.17-2.77,11.8-6.69,13.89-11.78l-16.21,1.05c-1.59.12-2.39-.53-2.39-1.93s.73-2.06,2.18-2.18l17.58-1.16c.21-1.36.36-2.75.46-4.18l-12.52.91h-.42c-1.29,0-1.93-.61-1.93-1.83,0-1.29.69-1.98,2.07-2.07l12.9-.98v-4.22Zm11.43-21.06l-.35,3.06c-.19,1.55-1,2.32-2.43,2.32-1.52,0-2.23-.84-2.11-2.53l.14-2.39-10.16.95.25,2.11v.53c0,1.59-.73,2.39-2.18,2.39-1.31,0-2.07-.76-2.29-2.29l-.35-2.29-8.44.77c-.16.02-.29.04-.39.04-1.38.07-2.07-.63-2.07-2.11,0-1.27.67-1.97,2-2.11l8.23-.77-.6-3.9c-.05-.38-.07-.75-.07-1.12,0-1.52.8-2.29,2.39-2.29,1.48,0,2.32.86,2.53,2.57l.49,4.32,10.93-1.02.32-4.54c.09-1.69.84-2.53,2.25-2.53,1.92,0,2.88.79,2.88,2.36,0,.14-.01.32-.04.53l-.42,3.69,7.98-.74h.32c1.48.07,2.21.73,2.21,1.97,0,1.34-.75,2.07-2.25,2.21l-8.79.81Zm-11.43,11.43l-10.09.88.84,5.73,9.25-.77v-5.84Zm4.75-.42v5.87l9.25-.77.46-4.32c.02-.14.04-.28.04-.42,0-.73-.39-1.09-1.16-1.09h-.25l-8.33.74Z"/>
          <path class="cls-2" d="m109.87,89.88c.4,1.03.76,2.09,1.09,3.16l25.38-1.55c.49,0,.89.12,1.2.35.68.47,1.02,1.14,1.02,2,0,1.48-.69,2.25-2.07,2.32l-24.43,1.48c0,.12.02.33.07.63.28,1.62.42,3.5.42,5.66,0,9.28-2.19,13.92-6.57,13.92-1.99,0-4.64-.64-7.95-1.93-2.41-.96-3.62-1.93-3.62-2.92,0-.26.08-.55.25-.88.33-.68.86-1.02,1.58-1.02.33,0,.84.12,1.55.35,2.23.75,4.18,1.12,5.87,1.12,1.34,0,2.24-.61,2.71-1.83.73-1.83,1.09-4.45,1.09-7.88,0-1.55-.11-3.19-.32-4.92l-27.91,1.69h-.11c-.42.02-.82-.09-1.2-.35-.61-.45-.91-1.11-.91-2,0-1.48.69-2.25,2.07-2.32l27.18-1.65c-.49-1.8-1.1-3.34-1.83-4.61-.35-.61-.53-1.16-.53-1.65s.2-.9.6-1.23c.42-.33.88-.49,1.37-.49.7,0,1.42.39,2.14,1.16,2.55-1.78,4.76-3.63,6.61-5.55.61-.61.91-1.03.91-1.27s-.28-.35-.84-.35h-.32l-23.27,1.79-.25.04c-.61.05-1.12-.25-1.55-.88-.28-.42-.42-.89-.42-1.41,0-1.43.69-2.19,2.07-2.29l29.11-2c.3-.02.48-.04.53-.04,2.16,0,3.23.75,3.23,2.25,0,1.12-.75,2.41-2.25,3.87-3.91,3.82-7.82,6.89-11.71,9.21Zm-.25-25.7l22.75-1.41h.39c2.41,0,3.62.88,3.62,2.64,0,1.66-1.39,4.29-4.18,7.88-1.73,2.23-3.06,3.34-3.97,3.34-.38,0-.75-.13-1.12-.39-.47-.3-.7-.76-.7-1.37,0-.45.23-1.03.7-1.76.77-1.15,1.46-2.47,2.07-3.97.19-.45.28-.81.28-1.09,0-.49-.36-.74-1.09-.74h-.32l-41.98,2.67c0,2.72-.32,5.14-.95,7.28-.56,1.88-1.51,2.81-2.85,2.81-1.9,0-2.85-.86-2.85-2.57,0-.49.21-1.29.63-2.39.89-2.27,1.52-5.23,1.9-8.86.16-1.5.8-2.25,1.9-2.25,1.01,0,1.63.55,1.86,1.65l18.49-1.12v-7.95c0-1.64.9-2.46,2.71-2.46.96,0,1.7.33,2.21.98.33.4.49.89.49,1.48v7.59Z"/>
        </g>
        <g>
          <path class="cls-2" d="m4.43,73.46c1.1,0,3.25,1.02,6.43,3.06,1.08.68,1.93,1.29,2.57,1.83.82.73,1.23,1.55,1.23,2.46,0,.56-.16,1.1-.49,1.62-.45.73-1.12,1.09-2.04,1.09-.84,0-1.69-.49-2.53-1.48-1.05-1.24-2.98-2.99-5.77-5.24-.63-.49-.95-1.05-.95-1.69,0-.4.14-.77.42-1.12s.66-.53,1.12-.53Zm11.25,17.58c1.38,0,2.07.66,2.07,1.97,0,.52-.22,1.39-.67,2.64-2.44,6.73-4.93,12.18-7.49,16.35-.73,1.17-1.59,1.76-2.6,1.76-.59,0-1.15-.19-1.69-.56-.68-.49-1.02-1.15-1.02-1.97,0-.66.43-1.69,1.3-3.09,3.19-5.3,5.86-10.41,8.02-15.33.49-1.17,1.18-1.76,2.07-1.76Zm-7.84-32.87c1.1,0,3.07.91,5.91,2.74,1.64,1.05,2.69,1.83,3.16,2.32.63.66.95,1.36.95,2.11,0,.63-.21,1.2-.63,1.69-.52.63-1.2.95-2.04.95-.8,0-1.64-.47-2.53-1.41-2.16-2.3-3.97-3.97-5.45-5.03-.68-.47-1.02-1.04-1.02-1.72,0-1.1.55-1.65,1.65-1.65Zm32.06,27.35l-8.75.67c-.16,1.2-.97,1.79-2.43,1.79-1.36,0-2.17-.79-2.43-2.36l-1.83-11.11c-.02-.19-.04-.33-.04-.42,0-1.41.84-2.11,2.53-2.11.98,0,1.7.36,2.14,1.09l26.12-2.29c.19-.02.41-.04.67-.04,2.51,0,3.76,1.16,3.76,3.48,0,.42-.04.86-.11,1.3l-.88,5.03c.54.35.81.91.81,1.69,0,1.17-.75,1.82-2.25,1.93l-12.59.95v4.25l14.38-1.12h.35c1.36,0,2.04.64,2.04,1.93s-.72,2.02-2.14,2.11l-14.7,1.05c-.07,1.73-.18,3.14-.32,4.22l19.69-1.3c.21-.02.33-.04.35-.04.91-.05,1.55.32,1.9,1.09.12.26.18.55.18.88,0,1.38-.74,2.12-2.21,2.21l-18.21,1.2c2.11,2.25,5.16,4.7,9.14,7.35,3.73,2.48,7.32,4.34,10.79,5.55,1.34.47,2,1.01,2,1.62,0,.45-.4.81-1.2,1.09-2.23.82-3.93,1.23-5.1,1.23-.8,0-1.55-.23-2.25-.7-6.35-4.15-11.88-8.92-16.59-14.31-2.25,5.23-6.47,9.33-12.66,12.3-3.28,1.57-5.55,2.36-6.82,2.36-.63,0-1.11-.26-1.44-.77-.23-.35-.35-.71-.35-1.09,0-.68.33-1.22.98-1.62.16-.09.77-.34,1.83-.74,7.17-2.77,11.8-6.69,13.89-11.78l-16.21,1.05c-1.59.12-2.39-.53-2.39-1.93s.73-2.06,2.18-2.18l17.58-1.16c.21-1.36.36-2.75.46-4.18l-12.52.91h-.42c-1.29,0-1.93-.61-1.93-1.83,0-1.29.69-1.98,2.07-2.07l12.9-.98v-4.22Zm11.43-21.06l-.35,3.06c-.19,1.55-1,2.32-2.43,2.32-1.52,0-2.23-.84-2.11-2.53l.14-2.39-10.16.95.25,2.11v.53c0,1.59-.73,2.39-2.18,2.39-1.31,0-2.07-.76-2.29-2.29l-.35-2.29-8.44.77c-.16.02-.29.04-.39.04-1.38.07-2.07-.63-2.07-2.11,0-1.27.67-1.97,2-2.11l8.23-.77-.6-3.9c-.05-.38-.07-.75-.07-1.12,0-1.52.8-2.29,2.39-2.29,1.48,0,2.32.86,2.53,2.57l.49,4.32,10.93-1.02.32-4.54c.09-1.69.84-2.53,2.25-2.53,1.92,0,2.88.79,2.88,2.36,0,.14-.01.32-.04.53l-.42,3.69,7.98-.74h.32c1.48.07,2.21.73,2.21,1.97,0,1.34-.75,2.07-2.25,2.21l-8.79.81Zm-11.43,11.43l-10.09.88.84,5.73,9.25-.77v-5.84Zm4.75-.42v5.87l9.25-.77.46-4.32c.02-.14.04-.28.04-.42,0-.73-.39-1.09-1.16-1.09h-.25l-8.33.74Z"/>
          <path class="cls-2" d="m109.58,89.6c.4,1.03.76,2.09,1.09,3.16l25.38-1.55c.49,0,.89.12,1.2.35.68.47,1.02,1.14,1.02,2,0,1.48-.69,2.25-2.07,2.32l-24.43,1.48c0,.12.02.33.07.63.28,1.62.42,3.5.42,5.66,0,9.28-2.19,13.92-6.57,13.92-1.99,0-4.64-.64-7.95-1.93-2.41-.96-3.62-1.93-3.62-2.92,0-.26.08-.55.25-.88.33-.68.86-1.02,1.58-1.02.33,0,.84.12,1.55.35,2.23.75,4.18,1.12,5.87,1.12,1.34,0,2.24-.61,2.71-1.83.73-1.83,1.09-4.45,1.09-7.88,0-1.55-.11-3.19-.32-4.92l-27.91,1.69h-.11c-.42.02-.82-.09-1.2-.35-.61-.45-.91-1.11-.91-2,0-1.48.69-2.25,2.07-2.32l27.18-1.65c-.49-1.8-1.1-3.34-1.83-4.61-.35-.61-.53-1.16-.53-1.65s.2-.9.6-1.23c.42-.33.88-.49,1.37-.49.7,0,1.42.39,2.14,1.16,2.55-1.78,4.76-3.63,6.61-5.55.61-.61.91-1.03.91-1.27s-.28-.35-.84-.35h-.32l-23.27,1.79-.25.04c-.61.05-1.12-.25-1.55-.88-.28-.42-.42-.89-.42-1.41,0-1.43.69-2.19,2.07-2.29l29.11-2c.3-.02.48-.04.53-.04,2.16,0,3.23.75,3.23,2.25,0,1.12-.75,2.41-2.25,3.87-3.91,3.82-7.82,6.89-11.71,9.21Zm-.25-25.7l22.75-1.41h.39c2.41,0,3.62.88,3.62,2.64,0,1.66-1.39,4.29-4.18,7.88-1.73,2.23-3.06,3.34-3.97,3.34-.38,0-.75-.13-1.12-.39-.47-.3-.7-.76-.7-1.37,0-.45.23-1.03.7-1.76.77-1.15,1.46-2.47,2.07-3.97.19-.45.28-.81.28-1.09,0-.49-.36-.74-1.09-.74h-.32l-41.98,2.67c0,2.72-.32,5.14-.95,7.28-.56,1.88-1.51,2.81-2.85,2.81-1.9,0-2.85-.86-2.85-2.57,0-.49.21-1.29.63-2.39.89-2.27,1.52-5.23,1.9-8.86.16-1.5.8-2.25,1.9-2.25,1.01,0,1.63.55,1.86,1.65l18.49-1.12v-7.95c0-1.64.9-2.46,2.71-2.46.96,0,1.7.33,2.21.98.33.4.49.89.49,1.48v7.59Z"/>
        </g>
        <g>
          <path class="cls-2" d="m4.14,73.17c1.1,0,3.25,1.02,6.43,3.06,1.08.68,1.93,1.29,2.57,1.83.82.73,1.23,1.55,1.23,2.46,0,.56-.16,1.1-.49,1.62-.45.73-1.12,1.09-2.04,1.09-.84,0-1.69-.49-2.53-1.48-1.05-1.24-2.98-2.99-5.77-5.24-.63-.49-.95-1.05-.95-1.69,0-.4.14-.77.42-1.12s.66-.53,1.12-.53Zm11.25,17.58c1.38,0,2.07.66,2.07,1.97,0,.52-.22,1.39-.67,2.64-2.44,6.73-4.93,12.18-7.49,16.35-.73,1.17-1.59,1.76-2.6,1.76-.59,0-1.15-.19-1.69-.56-.68-.49-1.02-1.15-1.02-1.97,0-.66.43-1.69,1.3-3.09,3.19-5.3,5.86-10.41,8.02-15.33.49-1.17,1.18-1.76,2.07-1.76Zm-7.84-32.87c1.1,0,3.07.91,5.91,2.74,1.64,1.05,2.69,1.83,3.16,2.32.63.66.95,1.36.95,2.11,0,.63-.21,1.2-.63,1.69-.52.63-1.2.95-2.04.95-.8,0-1.64-.47-2.53-1.41-2.16-2.3-3.97-3.97-5.45-5.03-.68-.47-1.02-1.04-1.02-1.72,0-1.1.55-1.65,1.65-1.65Zm32.06,27.35l-8.75.67c-.16,1.2-.97,1.79-2.43,1.79-1.36,0-2.17-.79-2.43-2.36l-1.83-11.11c-.02-.19-.04-.33-.04-.42,0-1.41.84-2.11,2.53-2.11.98,0,1.7.36,2.14,1.09l26.12-2.29c.19-.02.41-.04.67-.04,2.51,0,3.76,1.16,3.76,3.48,0,.42-.04.86-.11,1.3l-.88,5.03c.54.35.81.91.81,1.69,0,1.17-.75,1.82-2.25,1.93l-12.59.95v4.25l14.38-1.12h.35c1.36,0,2.04.64,2.04,1.93s-.72,2.02-2.14,2.11l-14.7,1.05c-.07,1.73-.18,3.14-.32,4.22l19.69-1.3c.21-.02.33-.04.35-.04.91-.05,1.55.32,1.9,1.09.12.26.18.55.18.88,0,1.38-.74,2.12-2.21,2.21l-18.21,1.2c2.11,2.25,5.16,4.7,9.14,7.35,3.73,2.48,7.32,4.34,10.79,5.55,1.34.47,2,1.01,2,1.62,0,.45-.4.81-1.2,1.09-2.23.82-3.93,1.23-5.1,1.23-.8,0-1.55-.23-2.25-.7-6.35-4.15-11.88-8.92-16.59-14.31-2.25,5.23-6.47,9.33-12.66,12.3-3.28,1.57-5.55,2.36-6.82,2.36-.63,0-1.11-.26-1.44-.77-.23-.35-.35-.71-.35-1.09,0-.68.33-1.22.98-1.62.16-.09.77-.34,1.83-.74,7.17-2.77,11.8-6.69,13.89-11.78l-16.21,1.05c-1.59.12-2.39-.53-2.39-1.93s.73-2.06,2.18-2.18l17.58-1.16c.21-1.36.36-2.75.46-4.18l-12.52.91h-.42c-1.29,0-1.93-.61-1.93-1.83,0-1.29.69-1.98,2.07-2.07l12.9-.98v-4.22Zm11.43-21.06l-.35,3.06c-.19,1.55-1,2.32-2.43,2.32-1.52,0-2.23-.84-2.11-2.53l.14-2.39-10.16.95.25,2.11v.53c0,1.59-.73,2.39-2.18,2.39-1.31,0-2.07-.76-2.29-2.29l-.35-2.29-8.44.77c-.16.02-.29.04-.39.04-1.38.07-2.07-.63-2.07-2.11,0-1.27.67-1.97,2-2.11l8.23-.77-.6-3.9c-.05-.38-.07-.75-.07-1.12,0-1.52.8-2.29,2.39-2.29,1.48,0,2.32.86,2.53,2.57l.49,4.32,10.93-1.02.32-4.54c.09-1.69.84-2.53,2.25-2.53,1.92,0,2.88.79,2.88,2.36,0,.14-.01.32-.04.53l-.42,3.69,7.98-.74h.32c1.48.07,2.21.73,2.21,1.97,0,1.34-.75,2.07-2.25,2.21l-8.79.81Zm-11.43,11.43l-10.09.88.84,5.73,9.25-.77v-5.84Zm4.75-.42v5.87l9.25-.77.46-4.32c.02-.14.04-.28.04-.42,0-.73-.39-1.09-1.16-1.09h-.25l-8.33.74Z"/>
          <path class="cls-2" d="m109.29,89.31c.4,1.03.76,2.09,1.09,3.16l25.38-1.55c.49,0,.89.12,1.2.35.68.47,1.02,1.14,1.02,2,0,1.48-.69,2.25-2.07,2.32l-24.43,1.48c0,.12.02.33.07.63.28,1.62.42,3.5.42,5.66,0,9.28-2.19,13.92-6.57,13.92-1.99,0-4.64-.64-7.95-1.93-2.41-.96-3.62-1.93-3.62-2.92,0-.26.08-.55.25-.88.33-.68.86-1.02,1.58-1.02.33,0,.84.12,1.55.35,2.23.75,4.18,1.12,5.87,1.12,1.34,0,2.24-.61,2.71-1.83.73-1.83,1.09-4.45,1.09-7.88,0-1.55-.11-3.19-.32-4.92l-27.91,1.69h-.11c-.42.02-.82-.09-1.2-.35-.61-.45-.91-1.11-.91-2,0-1.48.69-2.25,2.07-2.32l27.18-1.65c-.49-1.8-1.1-3.34-1.83-4.61-.35-.61-.53-1.16-.53-1.65s.2-.9.6-1.23c.42-.33.88-.49,1.37-.49.7,0,1.42.39,2.14,1.16,2.55-1.78,4.76-3.63,6.61-5.55.61-.61.91-1.03.91-1.27s-.28-.35-.84-.35h-.32l-23.27,1.79-.25.04c-.61.05-1.12-.25-1.55-.88-.28-.42-.42-.89-.42-1.41,0-1.43.69-2.19,2.07-2.29l29.11-2c.3-.02.48-.04.53-.04,2.16,0,3.23.75,3.23,2.25,0,1.12-.75,2.41-2.25,3.87-3.91,3.82-7.82,6.89-11.71,9.21Zm-.25-25.7l22.75-1.41h.39c2.41,0,3.62.88,3.62,2.64,0,1.66-1.39,4.29-4.18,7.88-1.73,2.23-3.06,3.34-3.97,3.34-.38,0-.75-.13-1.12-.39-.47-.3-.7-.76-.7-1.37,0-.45.23-1.03.7-1.76.77-1.15,1.46-2.47,2.07-3.97.19-.45.28-.81.28-1.09,0-.49-.36-.74-1.09-.74h-.32l-41.98,2.67c0,2.72-.32,5.14-.95,7.28-.56,1.88-1.51,2.81-2.85,2.81-1.9,0-2.85-.86-2.85-2.57,0-.49.21-1.29.63-2.39.89-2.27,1.52-5.23,1.9-8.86.16-1.5.8-2.25,1.9-2.25,1.01,0,1.63.55,1.86,1.65l18.49-1.12v-7.95c0-1.64.9-2.46,2.71-2.46.96,0,1.7.33,2.21.98.33.4.49.89.49,1.48v7.59Z"/>
        </g>
        <g>
          <path class="cls-2" d="m3.85,72.88c1.1,0,3.25,1.02,6.43,3.06,1.08.68,1.93,1.29,2.57,1.83.82.73,1.23,1.55,1.23,2.46,0,.56-.16,1.1-.49,1.62-.45.73-1.12,1.09-2.04,1.09-.84,0-1.69-.49-2.53-1.48-1.05-1.24-2.98-2.99-5.77-5.24-.63-.49-.95-1.05-.95-1.69,0-.4.14-.77.42-1.12s.66-.53,1.12-.53Zm11.25,17.58c1.38,0,2.07.66,2.07,1.97,0,.52-.22,1.39-.67,2.64-2.44,6.73-4.93,12.18-7.49,16.35-.73,1.17-1.59,1.76-2.6,1.76-.59,0-1.15-.19-1.69-.56-.68-.49-1.02-1.15-1.02-1.97,0-.66.43-1.69,1.3-3.09,3.19-5.3,5.86-10.41,8.02-15.33.49-1.17,1.18-1.76,2.07-1.76Zm-7.84-32.87c1.1,0,3.07.91,5.91,2.74,1.64,1.05,2.69,1.83,3.16,2.32.63.66.95,1.36.95,2.11,0,.63-.21,1.2-.63,1.69-.52.63-1.2.95-2.04.95-.8,0-1.64-.47-2.53-1.41-2.16-2.3-3.97-3.97-5.45-5.03-.68-.47-1.02-1.04-1.02-1.72,0-1.1.55-1.65,1.65-1.65Zm32.06,27.35l-8.75.67c-.16,1.2-.97,1.79-2.43,1.79-1.36,0-2.17-.79-2.43-2.36l-1.83-11.11c-.02-.19-.04-.33-.04-.42,0-1.41.84-2.11,2.53-2.11.98,0,1.7.36,2.14,1.09l26.12-2.29c.19-.02.41-.04.67-.04,2.51,0,3.76,1.16,3.76,3.48,0,.42-.04.86-.11,1.3l-.88,5.03c.54.35.81.91.81,1.69,0,1.17-.75,1.82-2.25,1.93l-12.59.95v4.25l14.38-1.12h.35c1.36,0,2.04.64,2.04,1.93s-.72,2.02-2.14,2.11l-14.7,1.05c-.07,1.73-.18,3.14-.32,4.22l19.69-1.3c.21-.02.33-.04.35-.04.91-.05,1.55.32,1.9,1.09.12.26.18.55.18.88,0,1.38-.74,2.12-2.21,2.21l-18.21,1.2c2.11,2.25,5.16,4.7,9.14,7.35,3.73,2.48,7.32,4.34,10.79,5.55,1.34.47,2,1.01,2,1.62,0,.45-.4.81-1.2,1.09-2.23.82-3.93,1.23-5.1,1.23-.8,0-1.55-.23-2.25-.7-6.35-4.15-11.88-8.92-16.59-14.31-2.25,5.23-6.47,9.33-12.66,12.3-3.28,1.57-5.55,2.36-6.82,2.36-.63,0-1.11-.26-1.44-.77-.23-.35-.35-.71-.35-1.09,0-.68.33-1.22.98-1.62.16-.09.77-.34,1.83-.74,7.17-2.77,11.8-6.69,13.89-11.78l-16.21,1.05c-1.59.12-2.39-.53-2.39-1.93s.73-2.06,2.18-2.18l17.58-1.16c.21-1.36.36-2.75.46-4.18l-12.52.91h-.42c-1.29,0-1.93-.61-1.93-1.83,0-1.29.69-1.98,2.07-2.07l12.9-.98v-4.22Zm11.43-21.06l-.35,3.06c-.19,1.55-1,2.32-2.43,2.32-1.52,0-2.23-.84-2.11-2.53l.14-2.39-10.16.95.25,2.11v.53c0,1.59-.73,2.39-2.18,2.39-1.31,0-2.07-.76-2.29-2.29l-.35-2.29-8.44.77c-.16.02-.29.04-.39.04-1.38.07-2.07-.63-2.07-2.11,0-1.27.67-1.97,2-2.11l8.23-.77-.6-3.9c-.05-.38-.07-.75-.07-1.12,0-1.52.8-2.29,2.39-2.29,1.48,0,2.32.86,2.53,2.57l.49,4.32,10.93-1.02.32-4.54c.09-1.69.84-2.53,2.25-2.53,1.92,0,2.88.79,2.88,2.36,0,.14-.01.32-.04.53l-.42,3.69,7.98-.74h.32c1.48.07,2.21.73,2.21,1.97,0,1.34-.75,2.07-2.25,2.21l-8.79.81Zm-11.43,11.43l-10.09.88.84,5.73,9.25-.77v-5.84Zm4.75-.42v5.87l9.25-.77.46-4.32c.02-.14.04-.28.04-.42,0-.73-.39-1.09-1.16-1.09h-.25l-8.33.74Z"/>
          <path class="cls-2" d="m109,89.02c.4,1.03.76,2.09,1.09,3.16l25.38-1.55c.49,0,.89.12,1.2.35.68.47,1.02,1.14,1.02,2,0,1.48-.69,2.25-2.07,2.32l-24.43,1.48c0,.12.02.33.07.63.28,1.62.42,3.5.42,5.66,0,9.28-2.19,13.92-6.57,13.92-1.99,0-4.64-.64-7.95-1.93-2.41-.96-3.62-1.93-3.62-2.92,0-.26.08-.55.25-.88.33-.68.86-1.02,1.58-1.02.33,0,.84.12,1.55.35,2.23.75,4.18,1.12,5.87,1.12,1.34,0,2.24-.61,2.71-1.83.73-1.83,1.09-4.45,1.09-7.88,0-1.55-.11-3.19-.32-4.92l-27.91,1.69h-.11c-.42.02-.82-.09-1.2-.35-.61-.45-.91-1.11-.91-2,0-1.48.69-2.25,2.07-2.32l27.18-1.65c-.49-1.8-1.1-3.34-1.83-4.61-.35-.61-.53-1.16-.53-1.65s.2-.9.6-1.23c.42-.33.88-.49,1.37-.49.7,0,1.42.39,2.14,1.16,2.55-1.78,4.76-3.63,6.61-5.55.61-.61.91-1.03.91-1.27s-.28-.35-.84-.35h-.32l-23.27,1.79-.25.04c-.61.05-1.12-.25-1.55-.88-.28-.42-.42-.89-.42-1.41,0-1.43.69-2.19,2.07-2.29l29.11-2c.3-.02.48-.04.53-.04,2.16,0,3.23.75,3.23,2.25,0,1.12-.75,2.41-2.25,3.87-3.91,3.82-7.82,6.89-11.71,9.21Zm-.25-25.7l22.75-1.41h.39c2.41,0,3.62.88,3.62,2.64,0,1.66-1.39,4.29-4.18,7.88-1.73,2.23-3.06,3.34-3.97,3.34-.38,0-.75-.13-1.12-.39-.47-.3-.7-.76-.7-1.37,0-.45.23-1.03.7-1.76.77-1.15,1.46-2.47,2.07-3.97.19-.45.28-.81.28-1.09,0-.49-.36-.74-1.09-.74h-.32l-41.98,2.67c0,2.72-.32,5.14-.95,7.28-.56,1.88-1.51,2.81-2.85,2.81-1.9,0-2.85-.86-2.85-2.57,0-.49.21-1.29.63-2.39.89-2.27,1.52-5.23,1.9-8.86.16-1.5.8-2.25,1.9-2.25,1.01,0,1.63.55,1.86,1.65l18.49-1.12v-7.95c0-1.64.9-2.46,2.71-2.46.96,0,1.7.33,2.21.98.33.4.49.89.49,1.48v7.59Z"/>
        </g>
        <g>
          <path class="cls-2" d="m3.56,72.59c1.1,0,3.25,1.02,6.43,3.06,1.08.68,1.93,1.29,2.57,1.83.82.73,1.23,1.55,1.23,2.46,0,.56-.16,1.1-.49,1.62-.45.73-1.12,1.09-2.04,1.09-.84,0-1.69-.49-2.53-1.48-1.05-1.24-2.98-2.99-5.77-5.24-.63-.49-.95-1.05-.95-1.69,0-.4.14-.77.42-1.12s.66-.53,1.12-.53Zm11.25,17.58c1.38,0,2.07.66,2.07,1.97,0,.52-.22,1.39-.67,2.64-2.44,6.73-4.93,12.18-7.49,16.35-.73,1.17-1.59,1.76-2.6,1.76-.59,0-1.15-.19-1.69-.56-.68-.49-1.02-1.15-1.02-1.97,0-.66.43-1.69,1.3-3.09,3.19-5.3,5.86-10.41,8.02-15.33.49-1.17,1.18-1.76,2.07-1.76Zm-7.84-32.87c1.1,0,3.07.91,5.91,2.74,1.64,1.05,2.69,1.83,3.16,2.32.63.66.95,1.36.95,2.11,0,.63-.21,1.2-.63,1.69-.52.63-1.2.95-2.04.95-.8,0-1.64-.47-2.53-1.41-2.16-2.3-3.97-3.97-5.45-5.03-.68-.47-1.02-1.04-1.02-1.72,0-1.1.55-1.65,1.65-1.65Zm32.06,27.35l-8.75.67c-.16,1.2-.97,1.79-2.43,1.79-1.36,0-2.17-.79-2.43-2.36l-1.83-11.11c-.02-.19-.04-.33-.04-.42,0-1.41.84-2.11,2.53-2.11.98,0,1.7.36,2.14,1.09l26.12-2.29c.19-.02.41-.04.67-.04,2.51,0,3.76,1.16,3.76,3.48,0,.42-.04.86-.11,1.3l-.88,5.03c.54.35.81.91.81,1.69,0,1.17-.75,1.82-2.25,1.93l-12.59.95v4.25l14.38-1.12h.35c1.36,0,2.04.64,2.04,1.93s-.72,2.02-2.14,2.11l-14.7,1.05c-.07,1.73-.18,3.14-.32,4.22l19.69-1.3c.21-.02.33-.04.35-.04.91-.05,1.55.32,1.9,1.09.12.26.18.55.18.88,0,1.38-.74,2.12-2.21,2.21l-18.21,1.2c2.11,2.25,5.16,4.7,9.14,7.35,3.73,2.48,7.32,4.34,10.79,5.55,1.34.47,2,1.01,2,1.62,0,.45-.4.81-1.2,1.09-2.23.82-3.93,1.23-5.1,1.23-.8,0-1.55-.23-2.25-.7-6.35-4.15-11.88-8.92-16.59-14.31-2.25,5.23-6.47,9.33-12.66,12.3-3.28,1.57-5.55,2.36-6.82,2.36-.63,0-1.11-.26-1.44-.77-.23-.35-.35-.71-.35-1.09,0-.68.33-1.22.98-1.62.16-.09.77-.34,1.83-.74,7.17-2.77,11.8-6.69,13.89-11.78l-16.21,1.05c-1.59.12-2.39-.53-2.39-1.93s.73-2.06,2.18-2.18l17.58-1.16c.21-1.36.36-2.75.46-4.18l-12.52.91h-.42c-1.29,0-1.93-.61-1.93-1.83,0-1.29.69-1.98,2.07-2.07l12.9-.98v-4.22Zm11.43-21.06l-.35,3.06c-.19,1.55-1,2.32-2.43,2.32-1.52,0-2.23-.84-2.11-2.53l.14-2.39-10.16.95.25,2.11v.53c0,1.59-.73,2.39-2.18,2.39-1.31,0-2.07-.76-2.29-2.29l-.35-2.29-8.44.77c-.16.02-.29.04-.39.04-1.38.07-2.07-.63-2.07-2.11,0-1.27.67-1.97,2-2.11l8.23-.77-.6-3.9c-.05-.38-.07-.75-.07-1.12,0-1.52.8-2.29,2.39-2.29,1.48,0,2.32.86,2.53,2.57l.49,4.32,10.93-1.02.32-4.54c.09-1.69.84-2.53,2.25-2.53,1.92,0,2.88.79,2.88,2.36,0,.14-.01.32-.04.53l-.42,3.69,7.98-.74h.32c1.48.07,2.21.73,2.21,1.97,0,1.34-.75,2.07-2.25,2.21l-8.79.81Zm-11.43,11.43l-10.09.88.84,5.73,9.25-.77v-5.84Zm4.75-.42v5.87l9.25-.77.46-4.32c.02-.14.04-.28.04-.42,0-.73-.39-1.09-1.16-1.09h-.25l-8.33.74Z"/>
          <path class="cls-2" d="m108.72,88.73c.4,1.03.76,2.09,1.09,3.16l25.38-1.55c.49,0,.89.12,1.2.35.68.47,1.02,1.14,1.02,2,0,1.48-.69,2.25-2.07,2.32l-24.43,1.48c0,.12.02.33.07.63.28,1.62.42,3.5.42,5.66,0,9.28-2.19,13.92-6.57,13.92-1.99,0-4.64-.64-7.95-1.93-2.41-.96-3.62-1.93-3.62-2.92,0-.26.08-.55.25-.88.33-.68.86-1.02,1.58-1.02.33,0,.84.12,1.55.35,2.23.75,4.18,1.12,5.87,1.12,1.34,0,2.24-.61,2.71-1.83.73-1.83,1.09-4.45,1.09-7.88,0-1.55-.11-3.19-.32-4.92l-27.91,1.69h-.11c-.42.02-.82-.09-1.2-.35-.61-.45-.91-1.11-.91-2,0-1.48.69-2.25,2.07-2.32l27.18-1.65c-.49-1.8-1.1-3.34-1.83-4.61-.35-.61-.53-1.16-.53-1.65s.2-.9.6-1.23c.42-.33.88-.49,1.37-.49.7,0,1.42.39,2.14,1.16,2.55-1.78,4.76-3.63,6.61-5.55.61-.61.91-1.03.91-1.27s-.28-.35-.84-.35h-.32l-23.27,1.79-.25.04c-.61.05-1.12-.25-1.55-.88-.28-.42-.42-.89-.42-1.41,0-1.43.69-2.19,2.07-2.29l29.11-2c.3-.02.48-.04.53-.04,2.16,0,3.23.75,3.23,2.25,0,1.12-.75,2.41-2.25,3.87-3.91,3.82-7.82,6.89-11.71,9.21Zm-.25-25.7l22.75-1.41h.39c2.41,0,3.62.88,3.62,2.64,0,1.66-1.39,4.29-4.18,7.88-1.73,2.23-3.06,3.34-3.97,3.34-.38,0-.75-.13-1.12-.39-.47-.3-.7-.76-.7-1.37,0-.45.23-1.03.7-1.76.77-1.15,1.46-2.47,2.07-3.97.19-.45.28-.81.28-1.09,0-.49-.36-.74-1.09-.74h-.32l-41.98,2.67c0,2.72-.32,5.14-.95,7.28-.56,1.88-1.51,2.81-2.85,2.81-1.9,0-2.85-.86-2.85-2.57,0-.49.21-1.29.63-2.39.89-2.27,1.52-5.23,1.9-8.86.16-1.5.8-2.25,1.9-2.25,1.01,0,1.63.55,1.86,1.65l18.49-1.12v-7.95c0-1.64.9-2.46,2.71-2.46.96,0,1.7.33,2.21.98.33.4.49.89.49,1.48v7.59Z"/>
        </g>
        <g>
          <path class="cls-2" d="m3.27,72.31c1.1,0,3.25,1.02,6.43,3.06,1.08.68,1.93,1.29,2.57,1.83.82.73,1.23,1.55,1.23,2.46,0,.56-.16,1.1-.49,1.62-.45.73-1.12,1.09-2.04,1.09-.84,0-1.69-.49-2.53-1.48-1.05-1.24-2.98-2.99-5.77-5.24-.63-.49-.95-1.05-.95-1.69,0-.4.14-.77.42-1.12s.66-.53,1.12-.53Zm11.25,17.58c1.38,0,2.07.66,2.07,1.97,0,.52-.22,1.39-.67,2.64-2.44,6.73-4.93,12.18-7.49,16.35-.73,1.17-1.59,1.76-2.6,1.76-.59,0-1.15-.19-1.69-.56-.68-.49-1.02-1.15-1.02-1.97,0-.66.43-1.69,1.3-3.09,3.19-5.3,5.86-10.41,8.02-15.33.49-1.17,1.18-1.76,2.07-1.76Zm-7.84-32.87c1.1,0,3.07.91,5.91,2.74,1.64,1.05,2.69,1.83,3.16,2.32.63.66.95,1.36.95,2.11,0,.63-.21,1.2-.63,1.69-.52.63-1.2.95-2.04.95-.8,0-1.64-.47-2.53-1.41-2.16-2.3-3.97-3.97-5.45-5.03-.68-.47-1.02-1.04-1.02-1.72,0-1.1.55-1.65,1.65-1.65Zm32.06,27.35l-8.75.67c-.16,1.2-.97,1.79-2.43,1.79-1.36,0-2.17-.79-2.43-2.36l-1.83-11.11c-.02-.19-.04-.33-.04-.42,0-1.41.84-2.11,2.53-2.11.98,0,1.7.36,2.14,1.09l26.12-2.29c.19-.02.41-.04.67-.04,2.51,0,3.76,1.16,3.76,3.48,0,.42-.04.86-.11,1.3l-.88,5.03c.54.35.81.91.81,1.69,0,1.17-.75,1.82-2.25,1.93l-12.59.95v4.25l14.38-1.12h.35c1.36,0,2.04.64,2.04,1.93s-.72,2.02-2.14,2.11l-14.7,1.05c-.07,1.73-.18,3.14-.32,4.22l19.69-1.3c.21-.02.33-.04.35-.04.91-.05,1.55.32,1.9,1.09.12.26.18.55.18.88,0,1.38-.74,2.12-2.21,2.21l-18.21,1.2c2.11,2.25,5.16,4.7,9.14,7.35,3.73,2.48,7.32,4.34,10.79,5.55,1.34.47,2,1.01,2,1.62,0,.45-.4.81-1.2,1.09-2.23.82-3.93,1.23-5.1,1.23-.8,0-1.55-.23-2.25-.7-6.35-4.15-11.88-8.92-16.59-14.31-2.25,5.23-6.47,9.33-12.66,12.3-3.28,1.57-5.55,2.36-6.82,2.36-.63,0-1.11-.26-1.44-.77-.23-.35-.35-.71-.35-1.09,0-.68.33-1.22.98-1.62.16-.09.77-.34,1.83-.74,7.17-2.77,11.8-6.69,13.89-11.78l-16.21,1.05c-1.59.12-2.39-.53-2.39-1.93s.73-2.06,2.18-2.18l17.58-1.16c.21-1.36.36-2.75.46-4.18l-12.52.91h-.42c-1.29,0-1.93-.61-1.93-1.83,0-1.29.69-1.98,2.07-2.07l12.9-.98v-4.22Zm11.43-21.06l-.35,3.06c-.19,1.55-1,2.32-2.43,2.32-1.52,0-2.23-.84-2.11-2.53l.14-2.39-10.16.95.25,2.11v.53c0,1.59-.73,2.39-2.18,2.39-1.31,0-2.07-.76-2.29-2.29l-.35-2.29-8.44.77c-.16.02-.29.04-.39.04-1.38.07-2.07-.63-2.07-2.11,0-1.27.67-1.97,2-2.11l8.23-.77-.6-3.9c-.05-.38-.07-.75-.07-1.12,0-1.52.8-2.29,2.39-2.29,1.48,0,2.32.86,2.53,2.57l.49,4.32,10.93-1.02.32-4.54c.09-1.69.84-2.53,2.25-2.53,1.92,0,2.88.79,2.88,2.36,0,.14-.01.32-.04.53l-.42,3.69,7.98-.74h.32c1.48.07,2.21.73,2.21,1.97,0,1.34-.75,2.07-2.25,2.21l-8.79.81Zm-11.43,11.43l-10.09.88.84,5.73,9.25-.77v-5.84Zm4.75-.42v5.87l9.25-.77.46-4.32c.02-.14.04-.28.04-.42,0-.73-.39-1.09-1.16-1.09h-.25l-8.33.74Z"/>
          <path class="cls-2" d="m108.43,88.44c.4,1.03.76,2.09,1.09,3.16l25.38-1.55c.49,0,.89.12,1.2.35.68.47,1.02,1.14,1.02,2,0,1.48-.69,2.25-2.07,2.32l-24.43,1.48c0,.12.02.33.07.63.28,1.62.42,3.5.42,5.66,0,9.28-2.19,13.92-6.57,13.92-1.99,0-4.64-.64-7.95-1.93-2.41-.96-3.62-1.93-3.62-2.92,0-.26.08-.55.25-.88.33-.68.86-1.02,1.58-1.02.33,0,.84.12,1.55.35,2.23.75,4.18,1.12,5.87,1.12,1.34,0,2.24-.61,2.71-1.83.73-1.83,1.09-4.45,1.09-7.88,0-1.55-.11-3.19-.32-4.92l-27.91,1.69h-.11c-.42.02-.82-.09-1.2-.35-.61-.45-.91-1.11-.91-2,0-1.48.69-2.25,2.07-2.32l27.18-1.65c-.49-1.8-1.1-3.34-1.83-4.61-.35-.61-.53-1.16-.53-1.65s.2-.9.6-1.23c.42-.33.88-.49,1.37-.49.7,0,1.42.39,2.14,1.16,2.55-1.78,4.76-3.63,6.61-5.55.61-.61.91-1.03.91-1.27s-.28-.35-.84-.35h-.32l-23.27,1.79-.25.04c-.61.05-1.12-.25-1.55-.88-.28-.42-.42-.89-.42-1.41,0-1.43.69-2.19,2.07-2.29l29.11-2c.3-.02.48-.04.53-.04,2.16,0,3.23.75,3.23,2.25,0,1.12-.75,2.41-2.25,3.87-3.91,3.82-7.82,6.89-11.71,9.21Zm-.25-25.7l22.75-1.41h.39c2.41,0,3.62.88,3.62,2.64,0,1.66-1.39,4.29-4.18,7.88-1.73,2.23-3.06,3.34-3.97,3.34-.38,0-.75-.13-1.12-.39-.47-.3-.7-.76-.7-1.37,0-.45.23-1.03.7-1.76.77-1.15,1.46-2.47,2.07-3.97.19-.45.28-.81.28-1.09,0-.49-.36-.74-1.09-.74h-.32l-41.98,2.67c0,2.72-.32,5.14-.95,7.28-.56,1.88-1.51,2.81-2.85,2.81-1.9,0-2.85-.86-2.85-2.57,0-.49.21-1.29.63-2.39.89-2.27,1.52-5.23,1.9-8.86.16-1.5.8-2.25,1.9-2.25,1.01,0,1.63.55,1.86,1.65l18.49-1.12v-7.95c0-1.64.9-2.46,2.71-2.46.96,0,1.7.33,2.21.98.33.4.49.89.49,1.48v7.59Z"/>
        </g>
        <g>
          <path class="cls-2" d="m2.99,72.02c1.1,0,3.25,1.02,6.43,3.06,1.08.68,1.93,1.29,2.57,1.83.82.73,1.23,1.55,1.23,2.46,0,.56-.16,1.1-.49,1.62-.45.73-1.12,1.09-2.04,1.09-.84,0-1.69-.49-2.53-1.48-1.05-1.24-2.98-2.99-5.77-5.24-.63-.49-.95-1.05-.95-1.69,0-.4.14-.77.42-1.12s.66-.53,1.12-.53Zm11.25,17.58c1.38,0,2.07.66,2.07,1.97,0,.52-.22,1.39-.67,2.64-2.44,6.73-4.93,12.18-7.49,16.35-.73,1.17-1.59,1.76-2.6,1.76-.59,0-1.15-.19-1.69-.56-.68-.49-1.02-1.15-1.02-1.97,0-.66.43-1.69,1.3-3.09,3.19-5.3,5.86-10.41,8.02-15.33.49-1.17,1.18-1.76,2.07-1.76Zm-7.84-32.87c1.1,0,3.07.91,5.91,2.74,1.64,1.05,2.69,1.83,3.16,2.32.63.66.95,1.36.95,2.11,0,.63-.21,1.2-.63,1.69-.52.63-1.2.95-2.04.95-.8,0-1.64-.47-2.53-1.41-2.16-2.3-3.97-3.97-5.45-5.03-.68-.47-1.02-1.04-1.02-1.72,0-1.1.55-1.65,1.65-1.65Zm32.06,27.35l-8.75.67c-.16,1.2-.97,1.79-2.43,1.79-1.36,0-2.17-.79-2.43-2.36l-1.83-11.11c-.02-.19-.04-.33-.04-.42,0-1.41.84-2.11,2.53-2.11.98,0,1.7.36,2.14,1.09l26.12-2.29c.19-.02.41-.04.67-.04,2.51,0,3.76,1.16,3.76,3.48,0,.42-.04.86-.11,1.3l-.88,5.03c.54.35.81.91.81,1.69,0,1.17-.75,1.82-2.25,1.93l-12.59.95v4.25l14.38-1.12h.35c1.36,0,2.04.64,2.04,1.93s-.72,2.02-2.14,2.11l-14.7,1.05c-.07,1.73-.18,3.14-.32,4.22l19.69-1.3c.21-.02.33-.04.35-.04.91-.05,1.55.32,1.9,1.09.12.26.18.55.18.88,0,1.38-.74,2.12-2.21,2.21l-18.21,1.2c2.11,2.25,5.16,4.7,9.14,7.35,3.73,2.48,7.32,4.34,10.79,5.55,1.34.47,2,1.01,2,1.62,0,.45-.4.81-1.2,1.09-2.23.82-3.93,1.23-5.1,1.23-.8,0-1.55-.23-2.25-.7-6.35-4.15-11.88-8.92-16.59-14.31-2.25,5.23-6.47,9.33-12.66,12.3-3.28,1.57-5.55,2.36-6.82,2.36-.63,0-1.11-.26-1.44-.77-.23-.35-.35-.71-.35-1.09,0-.68.33-1.22.98-1.62.16-.09.77-.34,1.83-.74,7.17-2.77,11.8-6.69,13.89-11.78l-16.21,1.05c-1.59.12-2.39-.53-2.39-1.93s.73-2.06,2.18-2.18l17.58-1.16c.21-1.36.36-2.75.46-4.18l-12.52.91h-.42c-1.29,0-1.93-.61-1.93-1.83,0-1.29.69-1.98,2.07-2.07l12.9-.98v-4.22Zm11.43-21.06l-.35,3.06c-.19,1.55-1,2.32-2.43,2.32-1.52,0-2.23-.84-2.11-2.53l.14-2.39-10.16.95.25,2.11v.53c0,1.59-.73,2.39-2.18,2.39-1.31,0-2.07-.76-2.29-2.29l-.35-2.29-8.44.77c-.16.02-.29.04-.39.04-1.38.07-2.07-.63-2.07-2.11,0-1.27.67-1.97,2-2.11l8.23-.77-.6-3.9c-.05-.38-.07-.75-.07-1.12,0-1.52.8-2.29,2.39-2.29,1.48,0,2.32.86,2.53,2.57l.49,4.32,10.93-1.02.32-4.54c.09-1.69.84-2.53,2.25-2.53,1.92,0,2.88.79,2.88,2.36,0,.14-.01.32-.04.53l-.42,3.69,7.98-.74h.32c1.48.07,2.21.73,2.21,1.97,0,1.34-.75,2.07-2.25,2.21l-8.79.81Zm-11.43,11.43l-10.09.88.84,5.73,9.25-.77v-5.84Zm4.75-.42v5.87l9.25-.77.46-4.32c.02-.14.04-.28.04-.42,0-.73-.39-1.09-1.16-1.09h-.25l-8.33.74Z"/>
          <path class="cls-2" d="m108.14,88.16c.4,1.03.76,2.09,1.09,3.16l25.38-1.55c.49,0,.89.12,1.2.35.68.47,1.02,1.14,1.02,2,0,1.48-.69,2.25-2.07,2.32l-24.43,1.48c0,.12.02.33.07.63.28,1.62.42,3.5.42,5.66,0,9.28-2.19,13.92-6.57,13.92-1.99,0-4.64-.64-7.95-1.93-2.41-.96-3.62-1.93-3.62-2.92,0-.26.08-.55.25-.88.33-.68.86-1.02,1.58-1.02.33,0,.84.12,1.55.35,2.23.75,4.18,1.12,5.87,1.12,1.34,0,2.24-.61,2.71-1.83.73-1.83,1.09-4.45,1.09-7.88,0-1.55-.11-3.19-.32-4.92l-27.91,1.69h-.11c-.42.02-.82-.09-1.2-.35-.61-.45-.91-1.11-.91-2,0-1.48.69-2.25,2.07-2.32l27.18-1.65c-.49-1.8-1.1-3.34-1.83-4.61-.35-.61-.53-1.16-.53-1.65s.2-.9.6-1.23c.42-.33.88-.49,1.37-.49.7,0,1.42.39,2.14,1.16,2.55-1.78,4.76-3.63,6.61-5.55.61-.61.91-1.03.91-1.27s-.28-.35-.84-.35h-.32l-23.27,1.79-.25.04c-.61.05-1.12-.25-1.55-.88-.28-.42-.42-.89-.42-1.41,0-1.43.69-2.19,2.07-2.29l29.11-2c.3-.02.48-.04.53-.04,2.16,0,3.23.75,3.23,2.25,0,1.12-.75,2.41-2.25,3.87-3.91,3.82-7.82,6.89-11.71,9.21Zm-.25-25.7l22.75-1.41h.39c2.41,0,3.62.88,3.62,2.64,0,1.66-1.39,4.29-4.18,7.88-1.73,2.23-3.06,3.34-3.97,3.34-.38,0-.75-.13-1.12-.39-.47-.3-.7-.76-.7-1.37,0-.45.23-1.03.7-1.76.77-1.15,1.46-2.47,2.07-3.97.19-.45.28-.81.28-1.09,0-.49-.36-.74-1.09-.74h-.32l-41.98,2.67c0,2.72-.32,5.14-.95,7.28-.56,1.88-1.51,2.81-2.85,2.81-1.9,0-2.85-.86-2.85-2.57,0-.49.21-1.29.63-2.39.89-2.27,1.52-5.23,1.9-8.86.16-1.5.8-2.25,1.9-2.25,1.01,0,1.63.55,1.86,1.65l18.49-1.12v-7.95c0-1.64.9-2.46,2.71-2.46.96,0,1.7.33,2.21.98.33.4.49.89.49,1.48v7.59Z"/>
        </g>
        <g>
          <path class="cls-2" d="m2.7,71.73c1.1,0,3.25,1.02,6.43,3.06,1.08.68,1.93,1.29,2.57,1.83.82.73,1.23,1.55,1.23,2.46,0,.56-.16,1.1-.49,1.62-.45.73-1.12,1.09-2.04,1.09-.84,0-1.69-.49-2.53-1.48-1.05-1.24-2.98-2.99-5.77-5.24-.63-.49-.95-1.05-.95-1.69,0-.4.14-.77.42-1.12s.66-.53,1.12-.53Zm11.25,17.58c1.38,0,2.07.66,2.07,1.97,0,.52-.22,1.39-.67,2.64-2.44,6.73-4.93,12.18-7.49,16.35-.73,1.17-1.59,1.76-2.6,1.76-.59,0-1.15-.19-1.69-.56-.68-.49-1.02-1.15-1.02-1.97,0-.66.43-1.69,1.3-3.09,3.19-5.3,5.86-10.41,8.02-15.33.49-1.17,1.18-1.76,2.07-1.76Zm-7.84-32.87c1.1,0,3.07.91,5.91,2.74,1.64,1.05,2.69,1.83,3.16,2.32.63.66.95,1.36.95,2.11,0,.63-.21,1.2-.63,1.69-.52.63-1.2.95-2.04.95-.8,0-1.64-.47-2.53-1.41-2.16-2.3-3.97-3.97-5.45-5.03-.68-.47-1.02-1.04-1.02-1.72,0-1.1.55-1.65,1.65-1.65Zm32.06,27.35l-8.75.67c-.16,1.2-.97,1.79-2.43,1.79-1.36,0-2.17-.79-2.43-2.36l-1.83-11.11c-.02-.19-.04-.33-.04-.42,0-1.41.84-2.11,2.53-2.11.98,0,1.7.36,2.14,1.09l26.12-2.29c.19-.02.41-.04.67-.04,2.51,0,3.76,1.16,3.76,3.48,0,.42-.04.86-.11,1.3l-.88,5.03c.54.35.81.91.81,1.69,0,1.17-.75,1.82-2.25,1.93l-12.59.95v4.25l14.38-1.12h.35c1.36,0,2.04.64,2.04,1.93s-.72,2.02-2.14,2.11l-14.7,1.05c-.07,1.73-.18,3.14-.32,4.22l19.69-1.3c.21-.02.33-.04.35-.04.91-.05,1.55.32,1.9,1.09.12.26.18.55.18.88,0,1.38-.74,2.12-2.21,2.21l-18.21,1.2c2.11,2.25,5.16,4.7,9.14,7.35,3.73,2.48,7.32,4.34,10.79,5.55,1.34.47,2,1.01,2,1.62,0,.45-.4.81-1.2,1.09-2.23.82-3.93,1.23-5.1,1.23-.8,0-1.55-.23-2.25-.7-6.35-4.15-11.88-8.92-16.59-14.31-2.25,5.23-6.47,9.33-12.66,12.3-3.28,1.57-5.55,2.36-6.82,2.36-.63,0-1.11-.26-1.44-.77-.23-.35-.35-.71-.35-1.09,0-.68.33-1.22.98-1.62.16-.09.77-.34,1.83-.74,7.17-2.77,11.8-6.69,13.89-11.78l-16.21,1.05c-1.59.12-2.39-.53-2.39-1.93s.73-2.06,2.18-2.18l17.58-1.16c.21-1.36.36-2.75.46-4.18l-12.52.91h-.42c-1.29,0-1.93-.61-1.93-1.83,0-1.29.69-1.98,2.07-2.07l12.9-.98v-4.22Zm11.43-21.06l-.35,3.06c-.19,1.55-1,2.32-2.43,2.32-1.52,0-2.23-.84-2.11-2.53l.14-2.39-10.16.95.25,2.11v.53c0,1.59-.73,2.39-2.18,2.39-1.31,0-2.07-.76-2.29-2.29l-.35-2.29-8.44.77c-.16.02-.29.04-.39.04-1.38.07-2.07-.63-2.07-2.11,0-1.27.67-1.97,2-2.11l8.23-.77-.6-3.9c-.05-.38-.07-.75-.07-1.12,0-1.52.8-2.29,2.39-2.29,1.48,0,2.32.86,2.53,2.57l.49,4.32,10.93-1.02.32-4.54c.09-1.69.84-2.53,2.25-2.53,1.92,0,2.88.79,2.88,2.36,0,.14-.01.32-.04.53l-.42,3.69,7.98-.74h.32c1.48.07,2.21.73,2.21,1.97,0,1.34-.75,2.07-2.25,2.21l-8.79.81Zm-11.43,11.43l-10.09.88.84,5.73,9.25-.77v-5.84Zm4.75-.42v5.87l9.25-.77.46-4.32c.02-.14.04-.28.04-.42,0-.73-.39-1.09-1.16-1.09h-.25l-8.33.74Z"/>
          <path class="cls-2" d="m107.85,87.87c.4,1.03.76,2.09,1.09,3.16l25.38-1.55c.49,0,.89.12,1.2.35.68.47,1.02,1.14,1.02,2,0,1.48-.69,2.25-2.07,2.32l-24.43,1.48c0,.12.02.33.07.63.28,1.62.42,3.5.42,5.66,0,9.28-2.19,13.92-6.57,13.92-1.99,0-4.64-.64-7.95-1.93-2.41-.96-3.62-1.93-3.62-2.92,0-.26.08-.55.25-.88.33-.68.86-1.02,1.58-1.02.33,0,.84.12,1.55.35,2.23.75,4.18,1.12,5.87,1.12,1.34,0,2.24-.61,2.71-1.83.73-1.83,1.09-4.45,1.09-7.88,0-1.55-.11-3.19-.32-4.92l-27.91,1.69h-.11c-.42.02-.82-.09-1.2-.35-.61-.45-.91-1.11-.91-2,0-1.48.69-2.25,2.07-2.32l27.18-1.65c-.49-1.8-1.1-3.34-1.83-4.61-.35-.61-.53-1.16-.53-1.65s.2-.9.6-1.23c.42-.33.88-.49,1.37-.49.7,0,1.42.39,2.14,1.16,2.55-1.78,4.76-3.63,6.61-5.55.61-.61.91-1.03.91-1.27s-.28-.35-.84-.35h-.32l-23.27,1.79-.25.04c-.61.05-1.12-.25-1.55-.88-.28-.42-.42-.89-.42-1.41,0-1.43.69-2.19,2.07-2.29l29.11-2c.3-.02.48-.04.53-.04,2.16,0,3.23.75,3.23,2.25,0,1.12-.75,2.41-2.25,3.87-3.91,3.82-7.82,6.89-11.71,9.21Zm-.25-25.7l22.75-1.41h.39c2.41,0,3.62.88,3.62,2.64,0,1.66-1.39,4.29-4.18,7.88-1.73,2.23-3.06,3.34-3.97,3.34-.38,0-.75-.13-1.12-.39-.47-.3-.7-.76-.7-1.37,0-.45.23-1.03.7-1.76.77-1.15,1.46-2.47,2.07-3.97.19-.45.28-.81.28-1.09,0-.49-.36-.74-1.09-.74h-.32l-41.98,2.67c0,2.72-.32,5.14-.95,7.28-.56,1.88-1.51,2.81-2.85,2.81-1.9,0-2.85-.86-2.85-2.57,0-.49.21-1.29.63-2.39.89-2.27,1.52-5.23,1.9-8.86.16-1.5.8-2.25,1.9-2.25,1.01,0,1.63.55,1.86,1.65l18.49-1.12v-7.95c0-1.64.9-2.46,2.71-2.46.96,0,1.7.33,2.21.98.33.4.49.89.49,1.48v7.59Z"/>
        </g>
        <g>
          <path class="cls-2" d="m2.41,71.44c1.1,0,3.25,1.02,6.43,3.06,1.08.68,1.93,1.29,2.57,1.83.82.73,1.23,1.55,1.23,2.46,0,.56-.16,1.1-.49,1.62-.45.73-1.12,1.09-2.04,1.09-.84,0-1.69-.49-2.53-1.48-1.05-1.24-2.98-2.99-5.77-5.24-.63-.49-.95-1.05-.95-1.69,0-.4.14-.77.42-1.12s.66-.53,1.12-.53Zm11.25,17.58c1.38,0,2.07.66,2.07,1.97,0,.52-.22,1.39-.67,2.64-2.44,6.73-4.93,12.18-7.49,16.35-.73,1.17-1.59,1.76-2.6,1.76-.59,0-1.15-.19-1.69-.56-.68-.49-1.02-1.15-1.02-1.97,0-.66.43-1.69,1.3-3.09,3.19-5.3,5.86-10.41,8.02-15.33.49-1.17,1.18-1.76,2.07-1.76Zm-7.84-32.87c1.1,0,3.07.91,5.91,2.74,1.64,1.05,2.69,1.83,3.16,2.32.63.66.95,1.36.95,2.11,0,.63-.21,1.2-.63,1.69-.52.63-1.2.95-2.04.95-.8,0-1.64-.47-2.53-1.41-2.16-2.3-3.97-3.97-5.45-5.03-.68-.47-1.02-1.04-1.02-1.72,0-1.1.55-1.65,1.65-1.65Zm32.06,27.35l-8.75.67c-.16,1.2-.97,1.79-2.43,1.79-1.36,0-2.17-.79-2.43-2.36l-1.83-11.11c-.02-.19-.04-.33-.04-.42,0-1.41.84-2.11,2.53-2.11.98,0,1.7.36,2.14,1.09l26.12-2.29c.19-.02.41-.04.67-.04,2.51,0,3.76,1.16,3.76,3.48,0,.42-.04.86-.11,1.3l-.88,5.03c.54.35.81.91.81,1.69,0,1.17-.75,1.82-2.25,1.93l-12.59.95v4.25l14.38-1.12h.35c1.36,0,2.04.64,2.04,1.93s-.72,2.02-2.14,2.11l-14.7,1.05c-.07,1.73-.18,3.14-.32,4.22l19.69-1.3c.21-.02.33-.04.35-.04.91-.05,1.55.32,1.9,1.09.12.26.18.55.18.88,0,1.38-.74,2.12-2.21,2.21l-18.21,1.2c2.11,2.25,5.16,4.7,9.14,7.35,3.73,2.48,7.32,4.34,10.79,5.55,1.34.47,2,1.01,2,1.62,0,.45-.4.81-1.2,1.09-2.23.82-3.93,1.23-5.1,1.23-.8,0-1.55-.23-2.25-.7-6.35-4.15-11.88-8.92-16.59-14.31-2.25,5.23-6.47,9.33-12.66,12.3-3.28,1.57-5.55,2.36-6.82,2.36-.63,0-1.11-.26-1.44-.77-.23-.35-.35-.71-.35-1.09,0-.68.33-1.22.98-1.62.16-.09.77-.34,1.83-.74,7.17-2.77,11.8-6.69,13.89-11.78l-16.21,1.05c-1.59.12-2.39-.53-2.39-1.93s.73-2.06,2.18-2.18l17.58-1.16c.21-1.36.36-2.75.46-4.18l-12.52.91h-.42c-1.29,0-1.93-.61-1.93-1.83,0-1.29.69-1.98,2.07-2.07l12.9-.98v-4.22Zm11.43-21.06l-.35,3.06c-.19,1.55-1,2.32-2.43,2.32-1.52,0-2.23-.84-2.11-2.53l.14-2.39-10.16.95.25,2.11v.53c0,1.59-.73,2.39-2.18,2.39-1.31,0-2.07-.76-2.29-2.29l-.35-2.29-8.44.77c-.16.02-.29.04-.39.04-1.38.07-2.07-.63-2.07-2.11,0-1.27.67-1.97,2-2.11l8.23-.77-.6-3.9c-.05-.38-.07-.75-.07-1.12,0-1.52.8-2.29,2.39-2.29,1.48,0,2.32.86,2.53,2.57l.49,4.32,10.93-1.02.32-4.54c.09-1.69.84-2.53,2.25-2.53,1.92,0,2.88.79,2.88,2.36,0,.14-.01.32-.04.53l-.42,3.69,7.98-.74h.32c1.48.07,2.21.73,2.21,1.97,0,1.34-.75,2.07-2.25,2.21l-8.79.81Zm-11.43,11.43l-10.09.88.84,5.73,9.25-.77v-5.84Zm4.75-.42v5.87l9.25-.77.46-4.32c.02-.14.04-.28.04-.42,0-.73-.39-1.09-1.16-1.09h-.25l-8.33.74Z"/>
          <path class="cls-2" d="m107.56,87.58c.4,1.03.76,2.09,1.09,3.16l25.38-1.55c.49,0,.89.12,1.2.35.68.47,1.02,1.14,1.02,2,0,1.48-.69,2.25-2.07,2.32l-24.43,1.48c0,.12.02.33.07.63.28,1.62.42,3.5.42,5.66,0,9.28-2.19,13.92-6.57,13.92-1.99,0-4.64-.64-7.95-1.93-2.41-.96-3.62-1.93-3.62-2.92,0-.26.08-.55.25-.88.33-.68.86-1.02,1.58-1.02.33,0,.84.12,1.55.35,2.23.75,4.18,1.12,5.87,1.12,1.34,0,2.24-.61,2.71-1.83.73-1.83,1.09-4.45,1.09-7.88,0-1.55-.11-3.19-.32-4.92l-27.91,1.69h-.11c-.42.02-.82-.09-1.2-.35-.61-.45-.91-1.11-.91-2,0-1.48.69-2.25,2.07-2.32l27.18-1.65c-.49-1.8-1.1-3.34-1.83-4.61-.35-.61-.53-1.16-.53-1.65s.2-.9.6-1.23c.42-.33.88-.49,1.37-.49.7,0,1.42.39,2.14,1.16,2.55-1.78,4.76-3.63,6.61-5.55.61-.61.91-1.03.91-1.27s-.28-.35-.84-.35h-.32l-23.27,1.79-.25.04c-.61.05-1.12-.25-1.55-.88-.28-.42-.42-.89-.42-1.41,0-1.43.69-2.19,2.07-2.29l29.11-2c.3-.02.48-.04.53-.04,2.16,0,3.23.75,3.23,2.25,0,1.12-.75,2.41-2.25,3.87-3.91,3.82-7.82,6.89-11.71,9.21Zm-.25-25.7l22.75-1.41h.39c2.41,0,3.62.88,3.62,2.64,0,1.66-1.39,4.29-4.18,7.88-1.73,2.23-3.06,3.34-3.97,3.34-.38,0-.75-.13-1.12-.39-.47-.3-.7-.76-.7-1.37,0-.45.23-1.03.7-1.76.77-1.15,1.46-2.47,2.07-3.97.19-.45.28-.81.28-1.09,0-.49-.36-.74-1.09-.74h-.32l-41.98,2.67c0,2.72-.32,5.14-.95,7.28-.56,1.88-1.51,2.81-2.85,2.81-1.9,0-2.85-.86-2.85-2.57,0-.49.21-1.29.63-2.39.89-2.27,1.52-5.23,1.9-8.86.16-1.5.8-2.25,1.9-2.25,1.01,0,1.63.55,1.86,1.65l18.49-1.12v-7.95c0-1.64.9-2.46,2.71-2.46.96,0,1.7.33,2.21.98.33.4.49.89.49,1.48v7.59Z"/>
        </g>
        <g>
          <path class="cls-2" d="m2.12,71.15c1.1,0,3.25,1.02,6.43,3.06,1.08.68,1.93,1.29,2.57,1.83.82.73,1.23,1.55,1.23,2.46,0,.56-.16,1.1-.49,1.62-.45.73-1.12,1.09-2.04,1.09-.84,0-1.69-.49-2.53-1.48-1.05-1.24-2.98-2.99-5.77-5.24-.63-.49-.95-1.05-.95-1.69,0-.4.14-.77.42-1.12s.66-.53,1.12-.53Zm11.25,17.58c1.38,0,2.07.66,2.07,1.97,0,.52-.22,1.39-.67,2.64-2.44,6.73-4.93,12.18-7.49,16.35-.73,1.17-1.59,1.76-2.6,1.76-.59,0-1.15-.19-1.69-.56-.68-.49-1.02-1.15-1.02-1.97,0-.66.43-1.69,1.3-3.09,3.19-5.3,5.86-10.41,8.02-15.33.49-1.17,1.18-1.76,2.07-1.76Zm-7.84-32.87c1.1,0,3.07.91,5.91,2.74,1.64,1.05,2.69,1.83,3.16,2.32.63.66.95,1.36.95,2.11,0,.63-.21,1.2-.63,1.69-.52.63-1.2.95-2.04.95-.8,0-1.64-.47-2.53-1.41-2.16-2.3-3.97-3.97-5.45-5.03-.68-.47-1.02-1.04-1.02-1.72,0-1.1.55-1.65,1.65-1.65Zm32.06,27.35l-8.75.67c-.16,1.2-.97,1.79-2.43,1.79-1.36,0-2.17-.79-2.43-2.36l-1.83-11.11c-.02-.19-.04-.33-.04-.42,0-1.41.84-2.11,2.53-2.11.98,0,1.7.36,2.14,1.09l26.12-2.29c.19-.02.41-.04.67-.04,2.51,0,3.76,1.16,3.76,3.48,0,.42-.04.86-.11,1.3l-.88,5.03c.54.35.81.91.81,1.69,0,1.17-.75,1.82-2.25,1.93l-12.59.95v4.25l14.38-1.12h.35c1.36,0,2.04.64,2.04,1.93s-.72,2.02-2.14,2.11l-14.7,1.05c-.07,1.73-.18,3.14-.32,4.22l19.69-1.3c.21-.02.33-.04.35-.04.91-.05,1.55.32,1.9,1.09.12.26.18.55.18.88,0,1.38-.74,2.12-2.21,2.21l-18.21,1.2c2.11,2.25,5.16,4.7,9.14,7.35,3.73,2.48,7.32,4.34,10.79,5.55,1.34.47,2,1.01,2,1.62,0,.45-.4.81-1.2,1.09-2.23.82-3.93,1.23-5.1,1.23-.8,0-1.55-.23-2.25-.7-6.35-4.15-11.88-8.92-16.59-14.31-2.25,5.23-6.47,9.33-12.66,12.3-3.28,1.57-5.55,2.36-6.82,2.36-.63,0-1.11-.26-1.44-.77-.23-.35-.35-.71-.35-1.09,0-.68.33-1.22.98-1.62.16-.09.77-.34,1.83-.74,7.17-2.77,11.8-6.69,13.89-11.78l-16.21,1.05c-1.59.12-2.39-.53-2.39-1.93s.73-2.06,2.18-2.18l17.58-1.16c.21-1.36.36-2.75.46-4.18l-12.52.91h-.42c-1.29,0-1.93-.61-1.93-1.83,0-1.29.69-1.98,2.07-2.07l12.9-.98v-4.22Zm11.43-21.06l-.35,3.06c-.19,1.55-1,2.32-2.43,2.32-1.52,0-2.23-.84-2.11-2.53l.14-2.39-10.16.95.25,2.11v.53c0,1.59-.73,2.39-2.18,2.39-1.31,0-2.07-.76-2.29-2.29l-.35-2.29-8.44.77c-.16.02-.29.04-.39.04-1.38.07-2.07-.63-2.07-2.11,0-1.27.67-1.97,2-2.11l8.23-.77-.6-3.9c-.05-.38-.07-.75-.07-1.12,0-1.52.8-2.29,2.39-2.29,1.48,0,2.32.86,2.53,2.57l.49,4.32,10.93-1.02.32-4.54c.09-1.69.84-2.53,2.25-2.53,1.92,0,2.88.79,2.88,2.36,0,.14-.01.32-.04.53l-.42,3.69,7.98-.74h.32c1.48.07,2.21.73,2.21,1.97,0,1.34-.75,2.07-2.25,2.21l-8.79.81Zm-11.43,11.43l-10.09.88.84,5.73,9.25-.77v-5.84Zm4.75-.42v5.87l9.25-.77.46-4.32c.02-.14.04-.28.04-.42,0-.73-.39-1.09-1.16-1.09h-.25l-8.33.74Z"/>
          <path class="cls-2" d="m107.28,87.29c.4,1.03.76,2.09,1.09,3.16l25.38-1.55c.49,0,.89.12,1.2.35.68.47,1.02,1.14,1.02,2,0,1.48-.69,2.25-2.07,2.32l-24.43,1.48c0,.12.02.33.07.63.28,1.62.42,3.5.42,5.66,0,9.28-2.19,13.92-6.57,13.92-1.99,0-4.64-.64-7.95-1.93-2.41-.96-3.62-1.93-3.62-2.92,0-.26.08-.55.25-.88.33-.68.86-1.02,1.58-1.02.33,0,.84.12,1.55.35,2.23.75,4.18,1.12,5.87,1.12,1.34,0,2.24-.61,2.71-1.83.73-1.83,1.09-4.45,1.09-7.88,0-1.55-.11-3.19-.32-4.92l-27.91,1.69h-.11c-.42.02-.82-.09-1.2-.35-.61-.45-.91-1.11-.91-2,0-1.48.69-2.25,2.07-2.32l27.18-1.65c-.49-1.8-1.1-3.34-1.83-4.61-.35-.61-.53-1.16-.53-1.65s.2-.9.6-1.23c.42-.33.88-.49,1.37-.49.7,0,1.42.39,2.14,1.16,2.55-1.78,4.76-3.63,6.61-5.55.61-.61.91-1.03.91-1.27s-.28-.35-.84-.35h-.32l-23.27,1.79-.25.04c-.61.05-1.12-.25-1.55-.88-.28-.42-.42-.89-.42-1.41,0-1.43.69-2.19,2.07-2.29l29.11-2c.3-.02.48-.04.53-.04,2.16,0,3.23.75,3.23,2.25,0,1.12-.75,2.41-2.25,3.87-3.91,3.82-7.82,6.89-11.71,9.21Zm-.25-25.7l22.75-1.41h.39c2.41,0,3.62.88,3.62,2.64,0,1.66-1.39,4.29-4.18,7.88-1.73,2.23-3.06,3.34-3.97,3.34-.38,0-.75-.13-1.12-.39-.47-.3-.7-.76-.7-1.37,0-.45.23-1.03.7-1.76.77-1.15,1.46-2.47,2.07-3.97.19-.45.28-.81.28-1.09,0-.49-.36-.74-1.09-.74h-.32l-41.98,2.67c0,2.72-.32,5.14-.95,7.28-.56,1.88-1.51,2.81-2.85,2.81-1.9,0-2.85-.86-2.85-2.57,0-.49.21-1.29.63-2.39.89-2.27,1.52-5.23,1.9-8.86.16-1.5.8-2.25,1.9-2.25,1.01,0,1.63.55,1.86,1.65l18.49-1.12v-7.95c0-1.64.9-2.46,2.71-2.46.96,0,1.7.33,2.21.98.33.4.49.89.49,1.48v7.59Z"/>
        </g>
        <g>
          <path class="cls-2" d="m1.83,70.87c1.1,0,3.25,1.02,6.43,3.06,1.08.68,1.93,1.29,2.57,1.83.82.73,1.23,1.55,1.23,2.46,0,.56-.16,1.1-.49,1.62-.45.73-1.12,1.09-2.04,1.09-.84,0-1.69-.49-2.53-1.48-1.05-1.24-2.98-2.99-5.77-5.24-.63-.49-.95-1.05-.95-1.69,0-.4.14-.77.42-1.12s.66-.53,1.12-.53Zm11.25,17.58c1.38,0,2.07.66,2.07,1.97,0,.52-.22,1.39-.67,2.64-2.44,6.73-4.93,12.18-7.49,16.35-.73,1.17-1.59,1.76-2.6,1.76-.59,0-1.15-.19-1.69-.56-.68-.49-1.02-1.15-1.02-1.97,0-.66.43-1.69,1.3-3.09,3.19-5.3,5.86-10.41,8.02-15.33.49-1.17,1.18-1.76,2.07-1.76Zm-7.84-32.87c1.1,0,3.07.91,5.91,2.74,1.64,1.05,2.69,1.83,3.16,2.32.63.66.95,1.36.95,2.11,0,.63-.21,1.2-.63,1.69-.52.63-1.2.95-2.04.95-.8,0-1.64-.47-2.53-1.41-2.16-2.3-3.97-3.97-5.45-5.03-.68-.47-1.02-1.04-1.02-1.72,0-1.1.55-1.65,1.65-1.65Zm32.06,27.35l-8.75.67c-.16,1.2-.97,1.79-2.43,1.79-1.36,0-2.17-.79-2.43-2.36l-1.83-11.11c-.02-.19-.04-.33-.04-.42,0-1.41.84-2.11,2.53-2.11.98,0,1.7.36,2.14,1.09l26.12-2.29c.19-.02.41-.04.67-.04,2.51,0,3.76,1.16,3.76,3.48,0,.42-.04.86-.11,1.3l-.88,5.03c.54.35.81.91.81,1.69,0,1.17-.75,1.82-2.25,1.93l-12.59.95v4.25l14.38-1.12h.35c1.36,0,2.04.64,2.04,1.93s-.72,2.02-2.14,2.11l-14.7,1.05c-.07,1.73-.18,3.14-.32,4.22l19.69-1.3c.21-.02.33-.04.35-.04.91-.05,1.55.32,1.9,1.09.12.26.18.55.18.88,0,1.38-.74,2.12-2.21,2.21l-18.21,1.2c2.11,2.25,5.16,4.7,9.14,7.35,3.73,2.48,7.32,4.34,10.79,5.55,1.34.47,2,1.01,2,1.62,0,.45-.4.81-1.2,1.09-2.23.82-3.93,1.23-5.1,1.23-.8,0-1.55-.23-2.25-.7-6.35-4.15-11.88-8.92-16.59-14.31-2.25,5.23-6.47,9.33-12.66,12.3-3.28,1.57-5.55,2.36-6.82,2.36-.63,0-1.11-.26-1.44-.77-.23-.35-.35-.71-.35-1.09,0-.68.33-1.22.98-1.62.16-.09.77-.34,1.83-.74,7.17-2.77,11.8-6.69,13.89-11.78l-16.21,1.05c-1.59.12-2.39-.53-2.39-1.93s.73-2.06,2.18-2.18l17.58-1.16c.21-1.36.36-2.75.46-4.18l-12.52.91h-.42c-1.29,0-1.93-.61-1.93-1.83,0-1.29.69-1.98,2.07-2.07l12.9-.98v-4.22Zm11.43-21.06l-.35,3.06c-.19,1.55-1,2.32-2.43,2.32-1.52,0-2.23-.84-2.11-2.53l.14-2.39-10.16.95.25,2.11v.53c0,1.59-.73,2.39-2.18,2.39-1.31,0-2.07-.76-2.29-2.29l-.35-2.29-8.44.77c-.16.02-.29.04-.39.04-1.38.07-2.07-.63-2.07-2.11,0-1.27.67-1.97,2-2.11l8.23-.77-.6-3.9c-.05-.38-.07-.75-.07-1.12,0-1.52.8-2.29,2.39-2.29,1.48,0,2.32.86,2.53,2.57l.49,4.32,10.93-1.02.32-4.54c.09-1.69.84-2.53,2.25-2.53,1.92,0,2.88.79,2.88,2.36,0,.14-.01.32-.04.53l-.42,3.69,7.98-.74h.32c1.48.07,2.21.73,2.21,1.97,0,1.34-.75,2.07-2.25,2.21l-8.79.81Zm-11.43,11.43l-10.09.88.84,5.73,9.25-.77v-5.84Zm4.75-.42v5.87l9.25-.77.46-4.32c.02-.14.04-.28.04-.42,0-.73-.39-1.09-1.16-1.09h-.25l-8.33.74Z"/>
          <path class="cls-2" d="m106.99,87c.4,1.03.76,2.09,1.09,3.16l25.38-1.55c.49,0,.89.12,1.2.35.68.47,1.02,1.14,1.02,2,0,1.48-.69,2.25-2.07,2.32l-24.43,1.48c0,.12.02.33.07.63.28,1.62.42,3.5.42,5.66,0,9.28-2.19,13.92-6.57,13.92-1.99,0-4.64-.64-7.95-1.93-2.41-.96-3.62-1.93-3.62-2.92,0-.26.08-.55.25-.88.33-.68.86-1.02,1.58-1.02.33,0,.84.12,1.55.35,2.23.75,4.18,1.12,5.87,1.12,1.34,0,2.24-.61,2.71-1.83.73-1.83,1.09-4.45,1.09-7.88,0-1.55-.11-3.19-.32-4.92l-27.91,1.69h-.11c-.42.02-.82-.09-1.2-.35-.61-.45-.91-1.11-.91-2,0-1.48.69-2.25,2.07-2.32l27.18-1.65c-.49-1.8-1.1-3.34-1.83-4.61-.35-.61-.53-1.16-.53-1.65s.2-.9.6-1.23c.42-.33.88-.49,1.37-.49.7,0,1.42.39,2.14,1.16,2.55-1.78,4.76-3.63,6.61-5.55.61-.61.91-1.03.91-1.27s-.28-.35-.84-.35h-.32l-23.27,1.79-.25.04c-.61.05-1.12-.25-1.55-.88-.28-.42-.42-.89-.42-1.41,0-1.43.69-2.19,2.07-2.29l29.11-2c.3-.02.48-.04.53-.04,2.16,0,3.23.75,3.23,2.25,0,1.12-.75,2.41-2.25,3.87-3.91,3.82-7.82,6.89-11.71,9.21Zm-.25-25.7l22.75-1.41h.39c2.41,0,3.62.88,3.62,2.64,0,1.66-1.39,4.29-4.18,7.88-1.73,2.23-3.06,3.34-3.97,3.34-.38,0-.75-.13-1.12-.39-.47-.3-.7-.76-.7-1.37,0-.45.23-1.03.7-1.76.77-1.15,1.46-2.47,2.07-3.97.19-.45.28-.81.28-1.09,0-.49-.36-.74-1.09-.74h-.32l-41.98,2.67c0,2.72-.32,5.14-.95,7.28-.56,1.88-1.51,2.81-2.85,2.81-1.9,0-2.85-.86-2.85-2.57,0-.49.21-1.29.63-2.39.89-2.27,1.52-5.23,1.9-8.86.16-1.5.8-2.25,1.9-2.25,1.01,0,1.63.55,1.86,1.65l18.49-1.12v-7.95c0-1.64.9-2.46,2.71-2.46.96,0,1.7.33,2.21.98.33.4.49.89.49,1.48v7.59Z"/>
        </g>
        <g>
          <path class="cls-2" d="m1.55,70.58c1.1,0,3.25,1.02,6.43,3.06,1.08.68,1.93,1.29,2.57,1.83.82.73,1.23,1.55,1.23,2.46,0,.56-.16,1.1-.49,1.62-.45.73-1.12,1.09-2.04,1.09-.84,0-1.69-.49-2.53-1.48-1.05-1.24-2.98-2.99-5.77-5.24-.63-.49-.95-1.05-.95-1.69,0-.4.14-.77.42-1.12s.66-.53,1.12-.53Zm11.25,17.58c1.38,0,2.07.66,2.07,1.97,0,.52-.22,1.39-.67,2.64-2.44,6.73-4.93,12.18-7.49,16.35-.73,1.17-1.59,1.76-2.6,1.76-.59,0-1.15-.19-1.69-.56-.68-.49-1.02-1.15-1.02-1.97,0-.66.43-1.69,1.3-3.09,3.19-5.3,5.86-10.41,8.02-15.33.49-1.17,1.18-1.76,2.07-1.76Zm-7.84-32.87c1.1,0,3.07.91,5.91,2.74,1.64,1.05,2.69,1.83,3.16,2.32.63.66.95,1.36.95,2.11,0,.63-.21,1.2-.63,1.69-.52.63-1.2.95-2.04.95-.8,0-1.64-.47-2.53-1.41-2.16-2.3-3.97-3.97-5.45-5.03-.68-.47-1.02-1.04-1.02-1.72,0-1.1.55-1.65,1.65-1.65Zm32.06,27.35l-8.75.67c-.16,1.2-.97,1.79-2.43,1.79-1.36,0-2.17-.79-2.43-2.36l-1.83-11.11c-.02-.19-.04-.33-.04-.42,0-1.41.84-2.11,2.53-2.11.98,0,1.7.36,2.14,1.09l26.12-2.29c.19-.02.41-.04.67-.04,2.51,0,3.76,1.16,3.76,3.48,0,.42-.04.86-.11,1.3l-.88,5.03c.54.35.81.91.81,1.69,0,1.17-.75,1.82-2.25,1.93l-12.59.95v4.25l14.38-1.12h.35c1.36,0,2.04.64,2.04,1.93s-.72,2.02-2.14,2.11l-14.7,1.05c-.07,1.73-.18,3.14-.32,4.22l19.69-1.3c.21-.02.33-.04.35-.04.91-.05,1.55.32,1.9,1.09.12.26.18.55.18.88,0,1.38-.74,2.12-2.21,2.21l-18.21,1.2c2.11,2.25,5.16,4.7,9.14,7.35,3.73,2.48,7.32,4.34,10.79,5.55,1.34.47,2,1.01,2,1.62,0,.45-.4.81-1.2,1.09-2.23.82-3.93,1.23-5.1,1.23-.8,0-1.55-.23-2.25-.7-6.35-4.15-11.88-8.92-16.59-14.31-2.25,5.23-6.47,9.33-12.66,12.3-3.28,1.57-5.55,2.36-6.82,2.36-.63,0-1.11-.26-1.44-.77-.23-.35-.35-.71-.35-1.09,0-.68.33-1.22.98-1.62.16-.09.77-.34,1.83-.74,7.17-2.77,11.8-6.69,13.89-11.78l-16.21,1.05c-1.59.12-2.39-.53-2.39-1.93s.73-2.06,2.18-2.18l17.58-1.16c.21-1.36.36-2.75.46-4.18l-12.52.91h-.42c-1.29,0-1.93-.61-1.93-1.83,0-1.29.69-1.98,2.07-2.07l12.9-.98v-4.22Zm11.43-21.06l-.35,3.06c-.19,1.55-1,2.32-2.43,2.32-1.52,0-2.23-.84-2.11-2.53l.14-2.39-10.16.95.25,2.11v.53c0,1.59-.73,2.39-2.18,2.39-1.31,0-2.07-.76-2.29-2.29l-.35-2.29-8.44.77c-.16.02-.29.04-.39.04-1.38.07-2.07-.63-2.07-2.11,0-1.27.67-1.97,2-2.11l8.23-.77-.6-3.9c-.05-.38-.07-.75-.07-1.12,0-1.52.8-2.29,2.39-2.29,1.48,0,2.32.86,2.53,2.57l.49,4.32,10.93-1.02.32-4.54c.09-1.69.84-2.53,2.25-2.53,1.92,0,2.88.79,2.88,2.36,0,.14-.01.32-.04.53l-.42,3.69,7.98-.74h.32c1.48.07,2.21.73,2.21,1.97,0,1.34-.75,2.07-2.25,2.21l-8.79.81Zm-11.43,11.43l-10.09.88.84,5.73,9.25-.77v-5.84Zm4.75-.42v5.87l9.25-.77.46-4.32c.02-.14.04-.28.04-.42,0-.73-.39-1.09-1.16-1.09h-.25l-8.33.74Z"/>
          <path class="cls-2" d="m106.7,86.72c.4,1.03.76,2.09,1.09,3.16l25.38-1.55c.49,0,.89.12,1.2.35.68.47,1.02,1.14,1.02,2,0,1.48-.69,2.25-2.07,2.32l-24.43,1.48c0,.12.02.33.07.63.28,1.62.42,3.5.42,5.66,0,9.28-2.19,13.92-6.57,13.92-1.99,0-4.64-.64-7.95-1.93-2.41-.96-3.62-1.93-3.62-2.92,0-.26.08-.55.25-.88.33-.68.86-1.02,1.58-1.02.33,0,.84.12,1.55.35,2.23.75,4.18,1.12,5.87,1.12,1.34,0,2.24-.61,2.71-1.83.73-1.83,1.09-4.45,1.09-7.88,0-1.55-.11-3.19-.32-4.92l-27.91,1.69h-.11c-.42.02-.82-.09-1.2-.35-.61-.45-.91-1.11-.91-2,0-1.48.69-2.25,2.07-2.32l27.18-1.65c-.49-1.8-1.1-3.34-1.83-4.61-.35-.61-.53-1.16-.53-1.65s.2-.9.6-1.23c.42-.33.88-.49,1.37-.49.7,0,1.42.39,2.14,1.16,2.55-1.78,4.76-3.63,6.61-5.55.61-.61.91-1.03.91-1.27s-.28-.35-.84-.35h-.32l-23.27,1.79-.25.04c-.61.05-1.12-.25-1.55-.88-.28-.42-.42-.89-.42-1.41,0-1.43.69-2.19,2.07-2.29l29.11-2c.3-.02.48-.04.53-.04,2.16,0,3.23.75,3.23,2.25,0,1.12-.75,2.41-2.25,3.87-3.91,3.82-7.82,6.89-11.71,9.21Zm-.25-25.7l22.75-1.41h.39c2.41,0,3.62.88,3.62,2.64,0,1.66-1.39,4.29-4.18,7.88-1.73,2.23-3.06,3.34-3.97,3.34-.38,0-.75-.13-1.12-.39-.47-.3-.7-.76-.7-1.37,0-.45.23-1.03.7-1.76.77-1.15,1.46-2.47,2.07-3.97.19-.45.28-.81.28-1.09,0-.49-.36-.74-1.09-.74h-.32l-41.98,2.67c0,2.72-.32,5.14-.95,7.28-.56,1.88-1.51,2.81-2.85,2.81-1.9,0-2.85-.86-2.85-2.57,0-.49.21-1.29.63-2.39.89-2.27,1.52-5.23,1.9-8.86.16-1.5.8-2.25,1.9-2.25,1.01,0,1.63.55,1.86,1.65l18.49-1.12v-7.95c0-1.64.9-2.46,2.71-2.46.96,0,1.7.33,2.21.98.33.4.49.89.49,1.48v7.59Z"/>
        </g>
      </g>
      <g>
        <path class="cls-3" d="m1.55,70.58c1.1,0,3.25,1.02,6.43,3.06,1.08.68,1.93,1.29,2.57,1.83.82.73,1.23,1.55,1.23,2.46,0,.56-.16,1.1-.49,1.62-.45.73-1.12,1.09-2.04,1.09-.84,0-1.69-.49-2.53-1.48-1.05-1.24-2.98-2.99-5.77-5.24-.63-.49-.95-1.05-.95-1.69,0-.4.14-.77.42-1.12s.66-.53,1.12-.53Zm11.25,17.58c1.38,0,2.07.66,2.07,1.97,0,.52-.22,1.39-.67,2.64-2.44,6.73-4.93,12.18-7.49,16.35-.73,1.17-1.59,1.76-2.6,1.76-.59,0-1.15-.19-1.69-.56-.68-.49-1.02-1.15-1.02-1.97,0-.66.43-1.69,1.3-3.09,3.19-5.3,5.86-10.41,8.02-15.33.49-1.17,1.18-1.76,2.07-1.76Zm-7.84-32.87c1.1,0,3.07.91,5.91,2.74,1.64,1.05,2.69,1.83,3.16,2.32.63.66.95,1.36.95,2.11,0,.63-.21,1.2-.63,1.69-.52.63-1.2.95-2.04.95-.8,0-1.64-.47-2.53-1.41-2.16-2.3-3.97-3.97-5.45-5.03-.68-.47-1.02-1.04-1.02-1.72,0-1.1.55-1.65,1.65-1.65Zm32.06,27.35l-8.75.67c-.16,1.2-.97,1.79-2.43,1.79-1.36,0-2.17-.79-2.43-2.36l-1.83-11.11c-.02-.19-.04-.33-.04-.42,0-1.41.84-2.11,2.53-2.11.98,0,1.7.36,2.14,1.09l26.12-2.29c.19-.02.41-.04.67-.04,2.51,0,3.76,1.16,3.76,3.48,0,.42-.04.86-.11,1.3l-.88,5.03c.54.35.81.91.81,1.69,0,1.17-.75,1.82-2.25,1.93l-12.59.95v4.25l14.38-1.12h.35c1.36,0,2.04.64,2.04,1.93s-.72,2.02-2.14,2.11l-14.7,1.05c-.07,1.73-.18,3.14-.32,4.22l19.69-1.3c.21-.02.33-.04.35-.04.91-.05,1.55.32,1.9,1.09.12.26.18.55.18.88,0,1.38-.74,2.12-2.21,2.21l-18.21,1.2c2.11,2.25,5.16,4.7,9.14,7.35,3.73,2.48,7.32,4.34,10.79,5.55,1.34.47,2,1.01,2,1.62,0,.45-.4.81-1.2,1.09-2.23.82-3.93,1.23-5.1,1.23-.8,0-1.55-.23-2.25-.7-6.35-4.15-11.88-8.92-16.59-14.31-2.25,5.23-6.47,9.33-12.66,12.3-3.28,1.57-5.55,2.36-6.82,2.36-.63,0-1.11-.26-1.44-.77-.23-.35-.35-.71-.35-1.09,0-.68.33-1.22.98-1.62.16-.09.77-.34,1.83-.74,7.17-2.77,11.8-6.69,13.89-11.78l-16.21,1.05c-1.59.12-2.39-.53-2.39-1.93s.73-2.06,2.18-2.18l17.58-1.16c.21-1.36.36-2.75.46-4.18l-12.52.91h-.42c-1.29,0-1.93-.61-1.93-1.83,0-1.29.69-1.98,2.07-2.07l12.9-.98v-4.22Zm11.43-21.06l-.35,3.06c-.19,1.55-1,2.32-2.43,2.32-1.52,0-2.23-.84-2.11-2.53l.14-2.39-10.16.95.25,2.11v.53c0,1.59-.73,2.39-2.18,2.39-1.31,0-2.07-.76-2.29-2.29l-.35-2.29-8.44.77c-.16.02-.29.04-.39.04-1.38.07-2.07-.63-2.07-2.11,0-1.27.67-1.97,2-2.11l8.23-.77-.6-3.9c-.05-.38-.07-.75-.07-1.12,0-1.52.8-2.29,2.39-2.29,1.48,0,2.32.86,2.53,2.57l.49,4.32,10.93-1.02.32-4.54c.09-1.69.84-2.53,2.25-2.53,1.92,0,2.88.79,2.88,2.36,0,.14-.01.32-.04.53l-.42,3.69,7.98-.74h.32c1.48.07,2.21.73,2.21,1.97,0,1.34-.75,2.07-2.25,2.21l-8.79.81Zm-11.43,11.43l-10.09.88.84,5.73,9.25-.77v-5.84Zm4.75-.42v5.87l9.25-.77.46-4.32c.02-.14.04-.28.04-.42,0-.73-.39-1.09-1.16-1.09h-.25l-8.33.74Z"/>
        <path class="cls-3" d="m106.7,86.72c.4,1.03.76,2.09,1.09,3.16l25.38-1.55c.49,0,.89.12,1.2.35.68.47,1.02,1.14,1.02,2,0,1.48-.69,2.25-2.07,2.32l-24.43,1.48c0,.12.02.33.07.63.28,1.62.42,3.5.42,5.66,0,9.28-2.19,13.92-6.57,13.92-1.99,0-4.64-.64-7.95-1.93-2.41-.96-3.62-1.93-3.62-2.92,0-.26.08-.55.25-.88.33-.68.86-1.02,1.58-1.02.33,0,.84.12,1.55.35,2.23.75,4.18,1.12,5.87,1.12,1.34,0,2.24-.61,2.71-1.83.73-1.83,1.09-4.45,1.09-7.88,0-1.55-.11-3.19-.32-4.92l-27.91,1.69h-.11c-.42.02-.82-.09-1.2-.35-.61-.45-.91-1.11-.91-2,0-1.48.69-2.25,2.07-2.32l27.18-1.65c-.49-1.8-1.1-3.34-1.83-4.61-.35-.61-.53-1.16-.53-1.65s.2-.9.6-1.23c.42-.33.88-.49,1.37-.49.7,0,1.42.39,2.14,1.16,2.55-1.78,4.76-3.63,6.61-5.55.61-.61.91-1.03.91-1.27s-.28-.35-.84-.35h-.32l-23.27,1.79-.25.04c-.61.05-1.12-.25-1.55-.88-.28-.42-.42-.89-.42-1.41,0-1.43.69-2.19,2.07-2.29l29.11-2c.3-.02.48-.04.53-.04,2.16,0,3.23.75,3.23,2.25,0,1.12-.75,2.41-2.25,3.87-3.91,3.82-7.82,6.89-11.71,9.21Zm-.25-25.7l22.75-1.41h.39c2.41,0,3.62.88,3.62,2.64,0,1.66-1.39,4.29-4.18,7.88-1.73,2.23-3.06,3.34-3.97,3.34-.38,0-.75-.13-1.12-.39-.47-.3-.7-.76-.7-1.37,0-.45.23-1.03.7-1.76.77-1.15,1.46-2.47,2.07-3.97.19-.45.28-.81.28-1.09,0-.49-.36-.74-1.09-.74h-.32l-41.98,2.67c0,2.72-.32,5.14-.95,7.28-.56,1.88-1.51,2.81-2.85,2.81-1.9,0-2.85-.86-2.85-2.57,0-.49.21-1.29.63-2.39.89-2.27,1.52-5.23,1.9-8.86.16-1.5.8-2.25,1.9-2.25,1.01,0,1.63.55,1.86,1.65l18.49-1.12v-7.95c0-1.64.9-2.46,2.71-2.46.96,0,1.7.33,2.21.98.33.4.49.89.49,1.48v7.59Z"/>
      </g>
    </g>
  </g>
  <g id="Trace_Kanji" data-name="Trace Kanji">
    <g>
      <path class="cls-1" d="m154.52,41.3h-12.6c-.57,0-1.05-.13-1.46-.38-1.02-.62-1.52-1.7-1.52-3.22,0-1.27.38-2.26,1.14-2.96.49-.47,1.1-.7,1.85-.7h33.49c.62,0,1.17.17,1.64.5.9.68,1.35,1.73,1.35,3.13s-.4,2.35-1.2,3.02c-.49.41-1.08.62-1.79.62h-12.6v33.78c0,1-.35,1.8-1.05,2.4-.78.68-1.82,1.03-3.11,1.03-1.74,0-2.96-.57-3.66-1.7-.31-.49-.47-1.06-.47-1.73v-33.78Z"/>
      <path class="cls-1" d="m191.96,61.16v14.09c0,.84-.27,1.54-.82,2.11-.74.76-1.74,1.14-2.99,1.14-1.48,0-2.57-.51-3.25-1.52-.33-.49-.5-1.06-.5-1.73v-26.04c0-.78.24-1.45.73-1.99.7-.74,1.65-1.11,2.84-1.11,1.5,0,2.56.57,3.16,1.7.23.41.35.88.35,1.41v3.08c1-1.72,1.99-3.05,2.99-3.98,1.84-1.68,4.03-2.52,6.59-2.52,2.01,0,3.74.63,5.19,1.9,1.04.92,1.55,1.96,1.55,3.13,0,.84-.28,1.62-.85,2.34-.78,1-1.79,1.49-3.02,1.49-.8,0-1.48-.21-2.02-.64-.72-.57-1.56-.85-2.52-.85-2.91,0-5.39,2.67-7.44,8Z"/>
      <path class="cls-1" d="m234.7,50.29l.18-1.9c.14-1.6,1.18-2.4,3.13-2.4,1.56,0,2.64.6,3.22,1.79.19.41.29.87.29,1.38v26.16c0,.66-.15,1.25-.44,1.76-.59.96-1.56,1.44-2.93,1.44-1.89,0-2.99-.99-3.28-2.96l-.32-2.02c-1.93,3.48-5.24,5.21-9.93,5.21-5,0-8.85-2.01-11.54-6.04-1.91-2.85-2.87-6.31-2.87-10.37,0-3.85.98-7.2,2.93-10.05,1.6-2.36,3.67-4.08,6.21-5.16,1.76-.76,3.6-1.14,5.54-1.14,4.34,0,7.61,1.44,9.81,4.31Zm-.62,12.54v-2.34c0-2.17-.8-4.06-2.4-5.68-1.62-1.64-3.5-2.46-5.62-2.46-2.46,0-4.44,1.03-5.95,3.08-1.33,1.82-1.99,4.11-1.99,6.88,0,2.38.47,4.42,1.41,6.12,1.45,2.6,3.6,3.9,6.47,3.9,1.78,0,3.4-.67,4.86-2.02,2.15-1.97,3.22-4.46,3.22-7.47Z"/>
      <path class="cls-1" d="m264.94,45.81c4.22,0,7.56,1.21,10.02,3.63,1.27,1.25,1.9,2.51,1.9,3.78,0,.96-.39,1.78-1.17,2.46-.7.61-1.5.91-2.4.91-1.02,0-1.87-.42-2.55-1.26-1.66-2.03-3.61-3.05-5.86-3.05-2.56,0-4.61,1.07-6.15,3.22-1.31,1.82-1.96,4.08-1.96,6.8s.74,5.06,2.23,6.91c1.64,2.03,3.65,3.05,6.04,3.05s4.35-1.16,6.21-3.49c.59-.76,1.34-1.14,2.26-1.14.86,0,1.67.33,2.43,1,.88.74,1.32,1.7,1.32,2.87,0,1.04-.45,2.07-1.35,3.11-2.46,2.83-6.08,4.25-10.87,4.25s-8.83-1.62-11.84-4.86c-2.85-3.07-4.28-6.99-4.28-11.78,0-3.05.67-5.82,2.02-8.32,2.11-3.93,5.33-6.45,9.67-7.56,1.39-.35,2.83-.53,4.34-.53Z"/>
      <path class="cls-1" d="m289.69,64.18c.12,2.36.96,4.28,2.52,5.74,1.7,1.6,3.85,2.4,6.45,2.4,2.95,0,5.47-1.07,7.56-3.22.57-.6,1.23-.91,1.99-.91.86,0,1.65.36,2.37,1.08.66.68,1,1.49,1,2.43,0,1.07-.54,2.12-1.61,3.13-2.79,2.68-6.66,4.01-11.6,4.01-4.28,0-7.86-1.19-10.75-3.57-3.81-3.11-5.71-7.41-5.71-12.92,0-4.08,1.07-7.58,3.22-10.49,2.97-4.04,7.14-6.06,12.51-6.06,4.43,0,8.09,1.63,10.96,4.89,2.44,2.75,3.66,5.85,3.66,9.29,0,1.52-.28,2.59-.85,3.19-.63.66-1.64,1-3.05,1h-18.66Zm.12-5.89h13.8c.6,0,.91-.24.91-.73,0-1.05-.44-2.12-1.32-3.19-1.35-1.66-3.23-2.49-5.65-2.49-1.45,0-2.8.37-4.07,1.11-2.05,1.19-3.27,2.96-3.66,5.3Z"/>
    </g>
    <g>
      <path class="cls-4" d="m159.56,118.23v11.76c0,.62-.16,1.16-.46,1.61-.67.98-1.77,1.48-3.28,1.48-1.29,0-2.32-.36-3.09-1.09-.53-.53-.79-1.19-.79-2v-35.96c0-.64.18-1.19.55-1.67.71-.93,1.8-1.39,3.28-1.39,1.28,0,2.28.36,3.01,1.09.53.53.79,1.19.79,1.97v15.12l17.25-16.9c.82-.82,1.79-1.23,2.9-1.23.91,0,1.71.28,2.41.85.88.69,1.31,1.61,1.31,2.76,0,.95-.36,1.76-1.09,2.43l-12.74,11.87,15.61,17.99c.69.78,1.04,1.64,1.04,2.57,0,1.13-.5,2.05-1.5,2.76-.78.57-1.63.85-2.54.85-1.28,0-2.36-.56-3.25-1.67l-14.63-17.8-4.76,4.59Z"/>
      <path class="cls-4" d="m210.08,106.75l.16-1.78c.13-1.49,1.1-2.24,2.93-2.24,1.46,0,2.46.56,3.01,1.67.18.38.27.81.27,1.29v24.42c0,.62-.14,1.17-.41,1.64-.55.89-1.46,1.34-2.73,1.34-1.77,0-2.79-.92-3.06-2.76l-.3-1.89c-1.8,3.25-4.89,4.87-9.27,4.87-4.67,0-8.26-1.88-10.77-5.63-1.79-2.66-2.68-5.89-2.68-9.68,0-3.59.91-6.72,2.73-9.38,1.49-2.21,3.43-3.81,5.8-4.81,1.64-.71,3.36-1.07,5.17-1.07,4.05,0,7.1,1.34,9.16,4.02Zm-.57,11.7v-2.19c0-2.02-.75-3.79-2.24-5.3-1.51-1.53-3.26-2.3-5.25-2.3-2.3,0-4.15.96-5.55,2.87-1.24,1.7-1.86,3.84-1.86,6.43,0,2.22.44,4.13,1.31,5.71,1.35,2.42,3.36,3.64,6.04,3.64,1.66,0,3.17-.63,4.54-1.89,2-1.84,3.01-4.17,3.01-6.97Z"/>
      <path class="cls-4" d="m229.21,107.81c1.04-1.4,2.27-2.52,3.69-3.34,1.99-1.17,4.08-1.75,6.29-1.75,3.3,0,5.93,1.11,7.9,3.34,1.75,1.95,2.62,4.87,2.62,8.75v15.23c0,.73-.22,1.35-.66,1.86-.69.78-1.67,1.18-2.93,1.18-1.42,0-2.45-.49-3.09-1.48-.29-.46-.44-.98-.44-1.56v-14.44c0-1.6-.26-2.95-.77-4.05-.82-1.75-2.16-2.62-4.02-2.62-1.97,0-3.85,1.02-5.63,3.06-1.42,1.6-2.13,3.25-2.13,4.95v13.1c0,.78-.26,1.44-.77,1.97-.69.71-1.62,1.07-2.79,1.07-1.44,0-2.48-.49-3.12-1.48-.29-.44-.44-.96-.44-1.56v-24.2c0-.73.17-1.34.52-1.83.51-.75,1.29-1.12,2.35-1.12,1.68,0,2.68.91,3.01,2.73l.38,2.19Z"/>
      <path class="cls-4" d="m268.87,105.93v29.78c0,3.28-.94,5.76-2.82,7.44-1.62,1.42-3.8,2.13-6.54,2.13-3.1,0-5.55-1.03-7.36-3.09-.89-1.02-1.34-2.05-1.34-3.09,0-1.29.53-2.29,1.59-2.98.49-.33,1.06-.49,1.7-.49,1.13,0,2.13.57,3.01,1.72.66.88,1.43,1.31,2.32,1.31,1.51,0,2.27-1,2.27-3.01v-29.72c0-1.06.48-1.87,1.45-2.43.67-.4,1.39-.6,2.13-.6.95,0,1.78.26,2.49.79.73.57,1.09,1.31,1.09,2.24Zm-3.55-15.31c.8,0,1.57.23,2.3.68,1.44.86,2.16,2.12,2.16,3.8,0,1.17-.4,2.18-1.2,3.04-.88.97-1.98,1.45-3.31,1.45-.75,0-1.46-.18-2.13-.55-1.55-.88-2.32-2.2-2.32-3.96,0-1.37.52-2.5,1.56-3.39.86-.71,1.84-1.07,2.95-1.07Z"/>
      <path class="cls-4" d="m280.89,90.61c.8,0,1.57.23,2.3.68,1.44.86,2.16,2.12,2.16,3.8,0,1.17-.4,2.18-1.2,3.04-.88.97-1.98,1.45-3.31,1.45-.75,0-1.46-.18-2.13-.55-1.55-.88-2.32-2.2-2.32-3.96,0-1.39.52-2.52,1.56-3.39.86-.71,1.84-1.07,2.95-1.07Zm3.55,15.37v24.01c0,.75-.23,1.38-.68,1.89-.69.8-1.67,1.2-2.93,1.2-1.42,0-2.46-.5-3.12-1.5-.29-.46-.44-.98-.44-1.59v-24.01c0-1.09.47-1.92,1.42-2.49.66-.4,1.38-.6,2.16-.6.93,0,1.75.26,2.46.79.75.58,1.12,1.35,1.12,2.3Z"/>
    </g>
  </g>
  <g id="Stroke">
    <line class="cls-5" x1="142.04" y1="37.96" x2="176.46" y2="37.96"/>
  </g>
  <g id="Pen">
    <line class="cls-6" x1="201.63" y1=".93" x2="186.54" y2="29.78"/>
    <polygon class="cls-4" points="188.06 31.97 182.97 36.73 184.02 29.81 188.06 31.97"/>
  </g>
</svg>