<?xml version="1.0" encoding="UTF-8"?>
<svg id="Layer_5" data-name="Layer 5" xmlns="http://www.w3.org/2000/svg" viewBox="0 0 71.18 71.18">
  <defs>
    <style>
      .cls-1 {
        fill: #fff;
      }

      .cls-1, .cls-2 {
        stroke-width: 0px;
      }

      .cls-2 {
        fill: #2fa387;
      }
    </style>
  </defs>
  <circle class="cls-2" cx="35.59" cy="35.59" r="35.59"/>
  <path class="cls-1" d="m31.68,24.22v-2.37l-23.46,1.28h-.19c-1.5,0-2.25-.68-2.25-2.03s.73-2.1,2.19-2.19l23.71-1.37v-2.31l-15.09.94h-.28c-.75,0-1.32-.28-1.72-.84-.25-.37-.37-.81-.37-1.31,0-1.44.73-2.2,2.19-2.28l15.28-.81v-2.19c0-2.21,1.31-3.31,3.94-3.31s3.87,1.1,3.87,3.31v1.75l12.03-.66c.31-.02.56-.03.75-.03,3.19,0,4.78,1.36,4.78,4.09,0,.69-.09,1.42-.28,2.19l6.28-.37h.31c.73,0,1.31.22,1.75.66.42.44.62.97.62,1.59,0,1.37-.73,2.1-2.19,2.19l-7.81.41-.62,2.66c.87.31,1.31.96,1.31,1.94,0,1.29-.68,1.97-2.03,2.03l-14.9.75v2.22l14.99-.81h.12c.75-.08,1.36.17,1.84.75.29.33.44.75.44,1.25,0,1.42-.68,2.17-2.03,2.25l-15.37.81v2.22l21.05-1.12h.12c.87,0,1.53.28,1.97.84.35.44.53.94.53,1.5,0,.85-.41,1.49-1.22,1.91-.29.12-.64.2-1.03.22l-50.01,2.69-.19.03c-.37.02-.78-.07-1.22-.28-.73-.4-1.09-1.03-1.09-1.91,0-1.46.79-2.23,2.37-2.31l20.9-1.12v-2.25l-14.43.75h-.19c-1.42-.04-2.12-.72-2.12-2.03s.72-2.1,2.16-2.19l14.59-.78v-2.22l-15.09.75h-.34c-1.31-.04-1.97-.7-1.97-1.97s.69-1.98,2.06-2.06l15.34-.81Zm15.68,37.58l-22.46,1.09c-.52,1.31-1.71,1.97-3.56,1.97-2.25,0-3.47-.99-3.65-2.97l-1.47-15.03c-.02-.19-.03-.3-.03-.34,0-1.29.66-2.19,1.97-2.69.54-.21,1.18-.31,1.91-.31,1.25,0,2.25.36,3,1.09l27.17-1.66c.23-.02.55-.03.97-.03,3.56,0,5.34,1.56,5.34,4.69,0,.46-.03.93-.09,1.41l-1.66,12.87c-.27,1.98-1.47,2.97-3.59,2.97-2.54,0-3.82-1.02-3.84-3.06Zm1.03-11.59l.12-1.25c0-.94-.43-1.41-1.28-1.41h-.12l-23.05,1.44.22,2.56,24.11-1.34Zm-.37,4.19l-23.39,1.37.22,2.59,22.93-1.09.25-2.87Zm-8.53-39.67v2.34l9.56-.56.12-.87v-.34c0-.71-.44-1.06-1.31-1.06h-.12l-8.25.5Zm0,9.09l8.59-.47.34-2.41-8.93.47v2.41Z"/>
</svg>